<svg width="1600" height="361" viewBox="0 0 1600 361" fill="none" xmlns="http://www.w3.org/2000/svg">
<path d="M200.672 136.995C274.592 138.02 348.457 144.468 418.545 156.362C491.295 168.733 562.102 185.256 630.552 201.159C700.327 217.447 772.611 234.283 846.699 246.673C984.673 269.698 1137.73 271.599 1278.05 251.919L1278.17 252.58C1137.85 272.187 984.5 270.355 846.526 247.33C772.289 234.939 700.005 218.103 630.23 201.814C561.783 185.838 490.972 169.389 418.223 157.018C279.671 133.545 126.637 131.131 -13.0701 150.306C-68.5658 157.967 -108.29 169.659 -150.273 182.052C-220.248 202.781 -292.778 224.207 -447.709 228.731L-447.684 228.071C-292.902 223.546 -220.523 202.191 -150.403 181.537C-108.42 169.144 -68.6925 157.379 -13.0481 149.72C55.9104 140.193 128.389 135.993 200.672 136.995Z" fill="url(#paint0_linear)"/>
<path d="M273.644 139.535C330.014 140.317 381.649 144.333 430.034 151.679C506.973 163.454 580.933 183.257 652.535 202.44C719.424 220.311 788.519 238.872 860.387 250.944C989.634 272.614 1115.53 260.644 1261.29 246.749C1273.84 245.529 1286.53 244.312 1299.37 243.17L1299.49 243.831C1286.65 245.047 1273.96 246.265 1261.41 247.411C1115.51 261.304 989.609 273.274 860.217 251.529C788.202 239.381 719.104 220.893 652.215 203.022C580.759 183.915 506.8 164.112 429.861 152.337C311.188 134.408 172.286 136.075 -7.24708 157.717C-62.1098 164.364 -99.7883 173.083 -139.72 182.358C-207.274 198.071 -277.23 214.337 -437.379 219.084L-437.354 218.424C-277.354 213.675 -207.549 197.48 -139.995 181.767C-101.865 172.908 -62.3825 163.7 -7.37108 157.055C99.0657 144.155 191.395 138.394 273.644 139.535Z" fill="url(#paint1_linear)"/>
<path d="M334.364 139.524C370.506 140.025 406.434 142.283 441.526 146.95C520.881 157.804 596.068 180.554 668.755 202.535C734.38 222.366 802.36 242.889 873.928 255.028C968.566 271.007 1054.95 261.132 1154.93 249.684C1206.49 243.799 1259.85 237.719 1320.39 234.232L1320.52 234.893C1259.97 238.38 1206.62 244.461 1155.06 250.346C1054.92 261.791 968.393 271.665 873.606 255.684C802.038 243.544 734.058 223.021 668.284 203.189C595.598 181.207 520.41 158.457 441.204 147.605C315.048 130.823 180.722 145.387 50.7304 159.425C33.5465 161.313 15.6188 163.191 -1.71117 165.005C-53.8498 170.442 -90.2366 176.464 -125.425 182.283C-193.855 193.581 -258.394 204.273 -427.334 209.337L-427.309 208.678C-258.517 203.611 -193.979 192.919 -125.549 181.621C-90.3605 175.802 -53.9738 169.78 -1.83513 164.343C15.4948 162.53 33.2765 160.576 50.6065 158.763C144.439 148.624 240.663 138.225 334.364 139.524Z" fill="url(#paint2_linear)"/>
<path d="M379.379 137.709C404.217 138.053 428.717 139.492 453.018 142.248C534.049 152.02 609.872 177.624 683.349 202.317C748.447 224.255 815.749 246.956 887.465 259.091C970.27 273.139 1041.98 261.746 1124.91 248.529C1186.29 238.752 1256.05 227.699 1341.71 225.294L1341.68 225.954C1256.03 228.358 1186.56 239.416 1125.04 249.191C1041.95 262.405 970.246 273.798 887.143 259.746C815.281 247.536 747.979 224.835 682.732 202.895C609.55 178.28 533.724 152.748 452.841 142.978C348.385 130.903 237.449 144.757 130.396 158.226C88.6832 163.438 45.4743 168.85 4.11633 172.527C-31.119 175.631 -58.7498 178.326 -83.0947 180.701C-165.538 188.72 -215.275 193.601 -416.84 199.676L-416.816 199.017C-215.247 192.868 -165.513 188.06 -83.0672 179.968C-58.7223 177.593 -31.0915 174.898 4.29254 171.797C45.6478 168.192 88.7079 162.779 130.421 157.567C212.655 147.199 297.131 136.569 379.379 137.709Z" fill="url(#paint3_linear)"/>
<path d="M413.126 134.8C430.379 135.039 447.607 135.937 464.507 137.636C546.917 146.322 623.232 174.625 696.904 202.012C761.772 226.055 828.693 250.932 900.995 263.286C977.883 276.363 1041.03 262.955 1114.38 247.419C1181.58 233.188 1257.79 216.958 1362.86 216.509L1362.84 217.168C1257.91 217.693 1181.71 233.776 1114.51 248.08C1041.16 263.616 977.856 277.095 900.67 264.014C828.368 251.66 761.299 226.781 696.433 202.665C622.761 175.277 546.591 147.049 464.33 138.366C369.744 128.999 270.063 144.318 173.676 159.096C119.495 167.428 63.5181 176.028 9.95104 179.9C-75.3971 186.042 -111.56 186.127 -171.531 186.176C-219.598 186.242 -285.524 186.355 -406.644 190.097L-406.619 189.438C-285.499 185.696 -219.576 185.657 -171.506 185.517C-111.533 185.395 -75.3723 185.383 9.82711 179.239C63.3942 175.367 119.371 166.767 173.549 158.509C252.579 146.273 334.002 133.705 413.126 134.8Z" fill="url(#paint4_linear)"/>
<path d="M440.049 131.293C452.096 131.46 464.129 131.992 475.997 132.962C559.64 140.487 636.147 171.553 710.165 201.561C774.801 227.779 841.636 254.906 914.527 267.406C987.714 279.909 1045.29 264.385 1111.74 246.349C1181.8 227.411 1261.32 205.896 1382.83 207.578C1383.13 207.582 1383.58 207.588 1383.87 207.592L1383.85 208.251C1383.55 208.246 1383.11 208.24 1382.81 208.236C1261.45 206.556 1182.07 228 1112.02 246.938C1045.42 264.972 987.838 280.57 914.207 267.987C841.168 255.485 774.187 228.283 709.551 202.065C635.679 172.132 559.169 141.139 475.827 133.545C386.673 126.163 293.168 143.459 202.809 160.213C140.771 171.723 76.7857 183.572 15.4965 187.042C-57.4237 191.156 -92.5839 188.327 -136.943 184.786C-187.533 180.719 -250.436 175.677 -396.436 180.243L-396.411 179.584C-250.263 175.02 -187.362 180.136 -136.772 184.203C-92.4132 187.744 -57.4016 190.571 15.5185 186.457C76.6589 182.985 140.793 171.138 202.682 159.625C281.05 145.194 361.67 130.208 440.049 131.293Z" fill="url(#paint5_linear)"/>
<path d="M462.968 127.442C471.148 127.555 479.469 127.89 487.632 128.442C572.359 134.806 645.695 167.05 723.129 201.105C787.682 229.498 854.431 258.871 928.204 271.593C999.022 283.763 1052.07 266.066 1113.55 245.634C1179.25 223.724 1260.47 196.69 1389.42 198.473C1394.62 198.545 1399.97 198.693 1405.32 198.84L1405.3 199.498C1267.23 195.174 1182.24 223.473 1113.97 246.225C1052.49 266.73 999.295 284.425 928.031 272.249C854.257 259.527 787.36 230.151 722.661 201.684C645.227 167.629 572.036 135.46 487.459 129.098C401.52 123.301 311.798 142.904 225.227 161.819C157.712 176.536 87.9444 191.808 21.324 194.616C-49.3202 197.588 -83.4693 191.631 -122.942 184.795C-174.096 175.969 -232.049 165.953 -386.092 170.77L-386.067 170.112C-231.876 165.297 -173.773 175.316 -122.62 184.141C-83.1471 190.977 -49.1439 196.859 21.3515 193.885C87.9719 191.077 157.588 175.876 225.103 161.159C303.423 144.032 384.293 126.354 462.968 127.442Z" fill="url(#paint6_linear)"/>
<path d="M483.071 123.265C488.425 123.339 493.627 123.484 498.973 123.777C584.783 128.983 658.171 163.764 735.8 200.503C800.418 231.07 867.077 262.76 941.587 275.63C1010.78 287.55 1057.91 268.76 1117.43 244.953C1182.24 219.099 1261.86 187.238 1398.09 189.121C1407.16 189.246 1416.53 189.522 1426.18 189.948L1426.16 190.605C1272.71 183.587 1186.75 217.919 1117.86 245.471C1060.45 268.43 1010.9 288.209 941.417 276.213C866.76 263.268 799.95 231.648 735.334 201.008C657.854 164.271 584.613 129.566 498.951 124.362C414.895 119.984 327.764 141.948 243.485 163.22C171.826 181.305 97.7658 199.942 26.8638 201.885C-43.292 203.766 -75.5458 194.915 -112.807 184.68C-161.701 171.213 -217.079 156.05 -376.038 161.088L-376.013 160.431C-216.905 155.394 -161.382 170.633 -112.338 184.101C-75.2264 194.335 -43.1185 203.111 26.8885 201.228C97.6419 199.283 171.702 180.646 243.21 162.632C322.377 142.75 403.801 122.169 483.071 123.265Z" fill="url(#paint7_linear)"/>
<path d="M501.544 118.922C504.518 118.963 507.492 119.004 510.613 119.12C597.507 123.169 670.797 160.482 748.471 199.901C813.003 232.711 879.873 266.648 955.267 279.741C1023.27 291.49 1067.35 270.699 1123.25 244.447C1187.03 214.432 1265.19 177.751 1409 179.665C1421.35 179.835 1434.28 180.306 1447.64 181.075L1447.61 181.732C1279.1 171.954 1193.05 212.471 1123.83 244.966C1067.78 271.289 1023.54 292.152 955.096 280.323C879.554 267.228 812.687 233.218 748.006 200.406C670.48 160.989 597.185 123.822 510.588 119.777C427.825 116.662 342.237 141.116 259.657 164.736C184.749 186.124 107.134 208.278 32.8486 209.224C-37.419 210.152 -67.9236 198.336 -103.27 184.701C-149.908 166.673 -202.707 146.296 -365.391 151.499L-365.366 150.842C-202.236 145.646 -149.44 166.096 -102.653 184.125C-67.4555 197.759 -37.0968 209.499 33.0221 208.569C107.159 207.621 184.625 185.465 259.533 164.077C338.954 141.363 421.383 117.815 501.544 118.922Z" fill="url(#paint8_linear)"/>
<path d="M518.681 114.488C519.871 114.505 520.912 114.519 521.953 114.533C609.782 117.425 683.274 157.201 760.846 199.295C825.44 234.349 892.373 270.53 968.649 283.846C1035.77 295.43 1077.39 272.793 1129.95 244.174C1192.69 210.003 1269.26 168.212 1420.66 170.302C1435.98 170.514 1451.87 171.171 1468.79 172.354L1468.77 173.01C1285.33 160.404 1199.64 207.179 1130.68 244.695C1077.96 273.457 1036.18 296.166 968.624 284.503C892.199 271.184 825.269 234.931 760.529 199.802C682.952 157.853 609.606 118.153 522.077 115.192C439.866 113.254 355.524 140.193 273.895 166.22C196.182 190.987 115.757 216.666 38.5336 216.622C-32.2893 216.52 -62.6558 201.063 -94.7739 184.707C-139.007 162.124 -189.228 136.54 -355.337 141.91L-355.313 141.254C-188.906 135.887 -138.539 161.547 -94.157 184.131C-62.1849 200.413 -31.9671 215.867 38.5611 215.892C115.487 215.932 195.91 190.327 273.474 165.557C354.045 139.953 437.481 113.367 518.681 114.488Z" fill="url(#paint9_linear)"/>
<path d="M533.59 109.953C622.502 111.69 695.9 153.923 773.517 198.694C838.174 235.991 905.166 274.488 982.325 288.028C1048.85 299.597 1088.01 275.041 1137.69 244.064C1199.25 205.591 1274.23 158.694 1433.21 160.889C1451.05 161.135 1469.92 161.979 1489.94 163.568L1489.77 164.223C1291.56 148.793 1206.53 201.898 1138.27 244.51C1088.44 275.631 1049.12 300.258 982.154 288.609C904.698 275.065 837.708 236.496 772.903 199.196C695.429 154.573 622.18 112.342 533.565 110.609C451.757 109.845 367.918 139.256 286.94 167.758C206.869 195.908 123.933 225.04 44.221 223.939C44.221 223.939 44.2211 223.939 44.0724 223.937C-27.3085 222.879 -56.069 204.317 -86.5728 184.635C-128.553 157.573 -176.049 126.86 -345.285 132.331L-345.26 131.675C-175.724 126.135 -127.933 156.925 -85.9587 184.133C-55.6008 203.739 -26.9863 222.227 44.0971 223.281C44.0971 223.281 44.0971 223.281 44.2458 223.283C123.66 224.379 206.445 195.318 286.516 167.168C367.645 138.595 451.487 109.111 533.59 109.953Z" fill="url(#paint10_linear)"/>
<path d="M547.163 105.327C636.093 106.554 708.961 150.945 786.043 198.019C850.762 237.558 917.813 278.369 996.004 292.135C1061.93 303.618 1099.08 277.297 1146.02 244.038C1179.35 220.362 1217.26 193.541 1273.62 174.776C1338.71 153.143 1416.48 146.632 1511.25 154.794L1511.07 155.447C1298.1 137.051 1214.17 196.633 1146.74 244.485C1099.5 277.959 1062.35 304.353 995.831 292.789C917.491 279.021 850.442 238.137 785.578 198.523C708.49 151.595 635.771 107.206 547.138 105.983C546.543 105.975 545.799 105.965 545.205 105.956C463.357 106.286 380.018 138.241 299.394 169.212C217.109 200.817 131.958 233.476 50.0579 231.253C-22.0297 229.237 -49.1842 207.571 -78.0738 184.568C-117.649 152.959 -162.57 117.12 -334.636 122.768L-334.612 122.112C-162.099 116.47 -117.032 152.384 -77.3137 184.141C-48.7161 206.994 -21.5616 228.66 50.0826 230.597C51.421 230.615 52.6108 230.631 53.9492 230.65C134.403 231.76 218.046 199.663 298.97 168.623C379.742 137.654 463.233 105.628 545.229 105.301C545.824 105.309 546.419 105.317 547.163 105.327Z" fill="url(#paint11_linear)"/>
<path d="M561.628 100.714C600.739 101.254 640.545 110.986 682.961 130.375C722.45 148.484 761.09 173.287 798.42 197.343C863.35 239.126 930.313 282.249 1009.53 296.242C1075.16 307.715 1110.3 279.629 1154.79 244.092C1187.62 217.87 1224.75 188.208 1282.52 167.504C1332.74 149.465 1391.54 141.02 1460.54 141.971C1483.29 142.285 1507.2 143.635 1532.4 145.95L1532.23 146.604C1304.65 125.245 1221.95 191.376 1155.52 244.467C1110.87 280.147 1075.58 308.377 1009.36 296.822C929.993 282.828 862.888 239.557 797.958 197.774C721.99 148.842 650.087 102.59 562.05 101.376C560.265 101.351 558.629 101.329 556.842 101.377C474.808 102.724 391.669 137.291 311.101 170.726C226.904 205.716 139.834 241.904 55.7461 238.558C-17.0482 235.587 -42.7427 210.743 -70.0181 184.421C-107.34 148.339 -149.536 107.38 -324.432 113.131L-324.407 112.475C-149.214 106.728 -106.726 147.837 -69.4095 184.065C-42.4261 210.238 -16.8775 235.006 55.6221 237.901C139.413 241.242 226.331 205.125 310.528 170.135C391.099 136.627 474.387 102.062 556.721 100.647C558.357 100.669 559.992 100.692 561.628 100.714Z" fill="url(#paint12_linear)"/>
<path d="M576.39 96.1066C615.352 96.6436 653.372 106.347 695.32 126.304C734.926 145.208 771.776 170.122 810.799 196.595C875.792 240.619 942.96 286.13 1023.07 300.274C1088.4 311.738 1121.81 281.893 1164.01 244.154C1196.19 215.384 1232.54 182.811 1291.72 160.168C1360.26 133.866 1445.95 126.305 1553.56 137.113L1553.39 137.767C1311.19 113.447 1226.49 189.211 1164.74 244.528C1122.39 282.483 1088.82 312.4 1022.9 300.855C942.643 286.635 875.329 241.049 810.34 196.953C732.872 144.451 659.61 94.8495 568.335 96.6512C486.116 99.0148 402.878 136.187 322.364 172.159C279.233 191.38 234.737 211.311 191.207 225.354C142.403 241.146 100.046 247.775 61.4364 245.786C-12.2132 241.856 -36.2992 213.841 -61.9604 184.201C-96.8776 143.578 -136.501 97.5724 -314.228 103.501L-314.203 102.845C-234.649 100.154 -175.716 107.668 -134.141 125.653C-97.5441 141.529 -79.0156 163.057 -61.0544 183.849C-35.6851 213.339 -11.5936 241.209 61.6099 245.132C147.143 249.59 235.979 209.944 321.94 171.571C402.603 135.601 485.843 98.3554 568.363 95.9231C570.888 96.0307 573.565 96.0676 576.39 96.1066Z" fill="url(#paint13_linear)"/>
<path d="M590.413 91.4152C628.78 91.9438 666.345 101.855 707.531 122.23C747.259 141.857 784.056 168.143 823.18 195.845C888.235 242.109 955.608 290.007 1036.6 304.377C1101.78 315.834 1133.47 284.302 1173.37 244.435C1204.75 213.118 1240.31 177.707 1300.76 152.979C1352.29 131.915 1414.27 121.992 1488.77 123.018C1515.68 123.389 1544.33 125.167 1574.56 128.424L1574.39 129.077C1317.58 101.726 1234.7 184.474 1174.09 244.882C1133.89 284.963 1102.05 316.639 1036.27 305.1C954.989 290.654 887.615 242.756 822.417 196.344C745.05 141.244 671.88 89.2607 579.525 92.1391C496.822 95.5145 413.486 135.292 332.877 173.796C288.937 194.746 243.632 216.405 199.315 231.597C149.57 248.68 106.305 255.73 66.9743 253.149C-7.53061 248.263 -30.1568 217.075 -54.0552 184.122C-86.722 139.105 -123.77 87.9831 -304.03 94.0923L-304.006 93.4373C-223.112 90.6923 -164.067 99.1522 -123.164 119.159C-87.2288 136.767 -69.8351 160.747 -53.0032 183.845C-29.248 216.651 -6.76505 247.691 67.2938 252.571C154.714 258.218 245.171 215.043 332.599 173.283C413.357 134.78 496.844 94.9322 579.698 91.486C583.273 91.3896 586.844 91.366 590.413 91.4152Z" fill="url(#paint14_linear)"/>
<path d="M604.289 86.6511C642.357 87.1755 679.318 97.2934 719.893 118.089C759.738 138.511 796.488 166.023 835.559 195.097C900.673 243.674 968.107 293.884 1050.13 308.481C1115.16 319.932 1145.28 286.789 1183.17 244.799C1213.76 210.934 1248.39 172.539 1310.1 145.8C1381.8 114.686 1475.27 106.146 1595.71 119.67L1595.54 120.323C1324.12 89.9418 1243.06 179.672 1183.9 245.173C1145.7 287.377 1115.58 320.738 1049.8 309.204C967.487 294.531 900.057 244.248 834.796 195.596C757.378 137.969 684.305 83.4584 591.161 87.5622C507.975 91.9488 424.39 134.401 343.54 175.363C298.791 198.04 252.677 221.427 207.57 237.84C157.033 256.216 112.862 263.615 72.8055 260.588C-2.55479 254.745 -23.5723 220.388 -46.0027 184.046C-76.411 134.419 -110.741 78.3311 -293.829 84.5445L-293.804 83.8897C-211.719 81.0895 -152.414 90.496 -112.183 112.524C-76.7635 131.939 -60.6506 158.294 -45.0967 183.695C-22.9583 219.887 -1.93245 254.026 72.833 259.86C161.847 266.619 253.921 219.988 342.964 174.845C423.966 133.813 507.7 91.3626 591.186 86.9074C595.509 86.6758 599.976 86.5917 604.289 86.6511Z" fill="url(#paint15_linear)"/>
<path d="M617.864 81.955C655.486 82.4731 692.287 92.8763 732.101 114.091C771.915 135.305 808.915 164.049 847.788 194.419C913.113 245.238 980.603 297.833 1063.66 312.657C1128.68 324.176 1157.08 289.347 1193.12 245.237C1222.91 208.826 1256.61 167.521 1319.45 138.697C1392.58 105.139 1489.78 96.0712 1616.87 110.92L1616.69 111.572C1330.81 78.0916 1251.72 174.876 1193.85 245.611C1157.65 289.937 1128.95 324.98 1063.33 313.307C979.986 298.406 912.499 245.739 847.028 194.845C769.71 134.62 696.729 77.7289 602.501 82.9806C518.683 88.3756 434.702 133.427 353.608 176.918C308.202 201.252 261.125 226.509 215.382 243.999C163.907 263.592 119.126 271.417 78.3453 267.872C2.12973 261.074 -17.4281 223.547 -38.0929 183.822C-66.2538 129.877 -98.0084 68.6776 -283.627 74.9995L-283.603 74.3449C-200.327 71.4893 -140.76 81.8422 -101.351 105.889C-66.5953 127.107 -51.6116 155.765 -37.1897 183.543C-16.6653 223.048 2.89802 260.429 78.5216 267.147C169.126 275.089 262.672 224.93 353.184 176.33C434.43 132.768 518.561 87.6462 602.529 82.2533C607.747 81.9613 612.808 81.8854 617.864 81.955Z" fill="url(#paint16_linear)"/>
<path d="M-239.315 64.4098C-172.549 65.3289 -123.591 76.8414 -90.2208 99.2688C-56.1295 122.288 -42.2779 153.322 -28.9825 183.329C-10.0748 226.216 7.88009 266.762 84.5075 274.437C176.702 283.562 267.463 232.291 363.55 177.894C445.19 131.735 529.717 84.0157 614.316 77.6151C657.869 74.723 699.139 84.9658 744.462 109.958C784.394 131.967 821.349 161.863 860.32 193.533C925.705 246.662 993.403 301.569 1077.34 316.691C1142.36 328.206 1169.33 291.77 1203.51 245.685C1252.59 179.365 1317.65 91.6612 1533.27 94.6292C1564.94 95.0652 1599.66 97.4345 1638.17 102.111L1637.99 102.763C1337.51 66.1838 1260.53 170.091 1204.24 245.986C1169.9 292.36 1142.78 329.012 1077.01 317.341C992.784 302.215 924.943 247.161 859.56 193.959C782.34 131.211 709.303 71.9394 614.292 78.2694C529.841 84.6721 445.466 132.321 363.976 178.409C317.91 204.471 270.172 231.456 223.495 250.09C171.227 270.975 125.689 279.15 84.1881 275.014C7.1173 267.261 -10.9808 226.567 -30.0261 183.387C-55.7853 124.984 -85.1189 58.8217 -273.268 65.2518L-273.244 64.5975C-261.48 64.3229 -250.17 64.2604 -239.315 64.4098Z" fill="url(#paint17_linear)"/>
<path d="M-230.303 54.9066C-161.903 55.8477 -112.387 68.3075 -79.3867 92.6092C-45.8084 117.355 -33.2403 150.828 -21.2229 183.129C-3.93208 229.39 12.5629 273.096 89.8935 281.794C131.82 286.442 177.966 277.916 230.725 255.812C277.892 236.031 326.289 207.323 373.161 179.613C455.194 130.938 540.118 80.5573 625.646 73.1547C631.913 72.6593 638.318 72.4566 644.564 72.5425C681.738 73.054 717.778 83.8742 756.662 106.003C796.711 128.802 833.619 159.92 872.539 192.882C937.983 248.312 1005.74 305.592 1090.85 320.868C1155.87 332.451 1181.57 294.415 1213.89 246.292C1261.5 175.549 1324.4 82.1147 1547.89 85.1897C1581.34 85.6501 1618.29 88.2669 1659.3 93.4118L1659.13 94.0637C1344.04 54.393 1269.32 165.478 1214.62 246.52C1181.99 294.93 1156.3 333.111 1090.53 321.446C1005.27 306.095 937.372 248.74 871.782 193.235C794.514 127.9 721.569 66.2587 625.773 73.7381C540.545 81.0721 455.772 131.382 373.888 180.059C327.014 207.842 278.616 236.55 231.449 256.331C178.539 278.506 132.245 287.03 90.0202 282.377C12.0948 273.671 -4.39193 229.748 -21.8232 183.266C-33.8434 151.037 -46.417 117.71 -79.8493 93.0391C-117.77 65.107 -177.563 52.9421 -262.923 55.9119L-262.898 55.2578C-251.726 54.9026 -240.712 54.7633 -230.303 54.9066Z" fill="url(#paint18_linear)"/>
<path d="M-220.995 45.4073C-151.109 46.3685 -100.884 59.7046 -68.2591 86.0253C-35.3452 112.568 -23.9064 148.336 -13.0182 182.933C2.65584 232.567 17.5397 279.501 95.8762 289.082C138.526 294.247 185.279 285.369 238.679 262.049C286.483 241.122 335.541 210.692 383.072 181.259C465.651 129.924 550.973 76.8824 637.278 68.5491C681.613 64.5804 723.462 75.185 769.015 101.902C809.182 125.492 846.041 157.83 884.911 192.085C950.563 249.82 1018.37 309.473 1104.37 324.973C1169.54 336.552 1193.8 296.988 1224.41 246.9C1250.1 204.884 1282.14 152.636 1348.33 117.428C1403.14 88.3124 1473.89 74.4599 1562.66 75.6808C1598.94 76.1799 1638.1 79.1894 1680.59 84.7156L1680.41 85.3673C1350.57 42.6041 1278.26 160.795 1225.44 247.132C1194.52 297.506 1170.26 337.289 1104.35 325.554C1018.06 309.977 950.103 250.177 884.303 192.44C806.981 124.662 734.132 60.5789 637.402 69.2049C551.543 77.5443 466.227 130.44 383.651 181.703C336.116 211.209 287.059 241.639 239.106 262.563C185.403 286.025 138.502 294.9 95.554 289.731C16.6255 280.07 1.74996 232.918 -14.0646 183.064C-24.9554 148.539 -36.2484 112.846 -69.1677 86.4489C-106.118 56.5076 -166.32 43.3977 -252.722 46.4244L-252.697 45.7707C-241.823 45.4115 -231.106 45.2682 -220.995 45.4073Z" fill="url(#paint19_linear)"/>
<path d="M-211.536 35.9098C-140.165 36.8911 -89.531 51.1719 -57.276 79.3656C-24.8751 107.634 -14.7169 145.767 -4.95793 182.659C9.09669 235.738 22.5207 285.829 101.563 296.36C144.788 302.039 192.148 292.811 246.339 268.203C294.779 246.204 344.647 213.981 392.69 182.823C475.81 128.974 561.677 73.2741 648.759 64.0105C656.227 63.2415 663.526 62.9786 670.812 63.0788C707.539 63.5837 743.111 74.8969 781.217 97.868C821.504 122.177 858.316 155.736 897.136 191.285C962.849 251.248 1030.86 313.35 1117.89 329.076C1183.05 340.723 1206.03 299.632 1235.08 247.581C1259.83 203.1 1290.79 147.735 1357.96 110.447C1436.37 66.9212 1548.82 55.6818 1701.57 76.0159L1701.4 76.6673C1548.79 56.3353 1436.64 67.5788 1358.53 110.963C1291.52 148.108 1260.71 203.403 1235.97 247.812C1206.76 300.15 1183.77 341.532 1117.72 329.727C1030.39 313.925 962.384 251.75 896.525 191.712C819.304 121.347 746.547 54.8942 648.883 64.6661C562.098 73.9337 476.382 129.563 393.414 183.342C345.223 214.498 295.503 246.722 246.912 268.792C192.418 293.541 144.909 302.767 101.39 297.011C21.6066 286.398 8.19356 236.016 -5.85557 182.792C-15.62 146.045 -25.781 107.985 -57.89 79.8657C-94.614 47.9056 -154.927 33.855 -242.519 36.9368L-242.494 36.2833C-231.769 35.9222 -221.499 35.7729 -211.536 35.9098Z" fill="url(#paint20_linear)"/>
<path d="M-202.079 26.4128C-129.222 27.4142 -78.1789 42.6394 -46.2936 72.7058C-14.557 102.77 -5.67662 143.195 3.10461 182.312C15.5426 238.762 27.3555 292.081 107.401 303.565C151.2 309.759 199.314 300.254 254.149 274.356C303.226 251.212 353.605 217.266 402.308 184.386C485.97 127.95 572.532 69.5925 660.246 59.3245C705.361 54.353 747.792 65.248 793.425 93.6879C833.83 118.788 870.594 153.569 909.512 190.413C975.433 252.681 1043.5 317.158 1131.56 333.11C1161.56 338.46 1184.23 332.962 1202.88 315.645C1219.85 299.757 1232.06 275.888 1246.05 248.268C1270 201.323 1299.59 142.836 1367.88 103.399C1424.01 70.9114 1498.23 55.4473 1592.94 56.7491C1632.64 57.2948 1675.95 60.7948 1723.01 67.2511L1722.84 67.9022C1563.89 46.1833 1448 57.9522 1368.46 103.915C1300.47 143.211 1270.88 201.553 1246.94 248.498C1219.29 302.799 1197.58 345.636 1131.39 333.761C1043.03 317.732 974.819 253.181 908.903 190.768C831.63 117.959 758.965 49.1351 660.367 60.0523C572.802 70.3224 486.394 128.536 402.883 184.902C354.181 217.782 303.798 251.801 254.573 274.943C199.438 300.909 151.173 310.485 107.076 304.287C26.4415 292.649 14.6367 239.112 2.05828 182.443C-6.57702 143.401 -15.4601 103.048 -47.0535 73.1311C-82.8102 39.2353 -143.386 24.3148 -232.168 27.4516L-232.144 26.7984C-221.865 26.4313 -211.743 26.28 -202.079 26.4128Z" fill="url(#paint21_linear)"/>
<path d="M-192.471 16.9177C-118.279 17.9372 -66.6775 34.1085 -35.3133 66.1175C-4.08961 97.9068 3.65891 140.698 11.0137 182.105C21.8352 241.925 32.0371 298.47 113.083 310.981C157.454 317.761 206.178 307.832 261.801 280.72C311.516 256.431 362.558 220.691 411.917 186.161C496.123 127.139 583.231 66.1234 672.02 54.9299C680.39 53.8835 688.587 53.4879 696.616 53.5983C784.19 54.8016 851.318 120.477 922.028 189.759C988.006 254.402 1056.28 321.182 1145.22 337.431C1175.36 342.854 1197.75 336.992 1215.84 319.019C1232.38 302.55 1243.88 277.809 1257.16 249.172C1280.02 199.687 1308.68 138.159 1377.79 96.5688C1415.7 73.7872 1461.18 59.2401 1516.78 52.2367C1579.86 44.2471 1656.39 46.4601 1744.29 58.7021L1744.12 59.353C1578.68 36.2456 1459.05 48.6123 1378.37 97.0848C1309.41 138.532 1280.9 199.989 1258.05 249.402C1231.96 305.593 1211.39 349.955 1145.05 338.082C1055.66 321.827 987.392 254.902 921.268 190.184C844.101 114.643 771.381 43.4462 671.849 55.5083C583.507 66.7079 496.401 127.651 412.347 186.603C362.985 221.205 311.943 256.945 262.079 281.232C206.302 308.487 157.429 318.414 112.761 311.63C31.2717 299.04 20.9293 242.275 9.97017 182.163C2.46398 140.827 -5.29005 98.1807 -36.2219 66.5406C-71.3087 30.7056 -132.145 14.8429 -221.968 18.0368L-221.944 17.3838C-211.811 16.9423 -201.987 16.7869 -192.471 16.9177Z" fill="url(#paint22_linear)"/>
<path d="M-182.865 7.42259C-107.336 8.46014 -55.3251 25.5755 -24.4793 59.4543C6.08292 92.9662 12.6996 138.123 18.9281 181.751C28.1304 245.014 36.8701 304.787 118.622 318.247C163.716 325.543 212.898 315.26 269.162 286.933C319.512 261.571 371.067 224.035 421.084 187.856C505.982 126.249 593.636 62.5751 683.204 50.38C692.026 49.1949 700.671 48.7331 708.997 48.8474C796.867 50.0545 863.622 117.664 933.956 188.951C999.992 255.897 1068.33 325.052 1158.44 341.53C1188.58 346.951 1210.83 340.871 1228.35 322.243C1244.46 305.192 1255.25 279.651 1267.68 249.995C1289.59 198.045 1316.88 133.397 1386.97 89.6563C1425.37 65.655 1471.91 50.4014 1529.32 42.9895C1594.34 34.5938 1673.54 36.988 1764.83 49.9985L1764.66 50.6492C1592.73 26.1535 1469.37 39.0455 1387.55 90.0997C1317.61 133.697 1290.32 198.273 1268.42 250.15C1255.84 279.804 1245.05 305.418 1228.93 322.541C1211.11 341.382 1188.56 347.604 1157.97 342.104C1067.56 325.622 999.087 256.247 932.904 189.227C856.425 111.324 783.797 37.7557 683.479 50.9643C594.211 63.091 506.557 126.765 421.814 188.229C371.794 224.48 320.239 262.017 269.738 287.448C213.32 315.919 163.84 326.198 118.448 318.898C35.956 305.355 27.2246 245.364 18.0333 181.812C11.6534 138.254 5.17983 93.2441 -25.2365 59.8067C-59.6534 22.0327 -120.75 5.22791 -211.764 8.47702L-211.739 7.82423C-201.758 7.45334 -192.083 7.29597 -182.865 7.42259Z" fill="url(#paint23_linear)"/>
<path d="M-173.109 -2.07014C-96.2432 -1.0145 -43.8237 17.0447 -13.4962 52.7929C16.4046 88.0273 21.8923 135.477 26.9918 181.399C34.5749 248.103 41.7037 311.102 124.459 325.515C170.127 333.324 219.914 322.763 276.824 293.074C327.811 266.568 380.026 227.31 430.405 189.406C515.846 125.212 604.198 58.8093 694.692 45.6874C703.965 44.3637 712.91 43.8336 721.682 43.9541C809.698 45.1629 876.229 114.708 946.187 188.001C1012.43 257.252 1080.82 328.855 1171.96 345.56C1202.25 351.054 1224.36 344.611 1241.3 325.473C1257 307.841 1267.07 281.426 1278.8 250.826C1299.75 196.412 1325.83 128.646 1396.89 82.6823C1435.93 57.4633 1483.54 41.4309 1542.45 33.7515C1609.42 25.0222 1691.29 27.525 1786.11 41.3058L1785.94 41.9564C1607.53 16.0726 1480.57 29.5645 1397.62 83.2001C1326.86 129.023 1300.79 196.644 1279.83 251.058C1268.1 281.731 1257.88 308.143 1242.18 325.847C1224.93 345.344 1202.52 351.783 1171.79 346.283C1080.35 329.501 1011.81 257.824 945.573 188.5C868.751 107.931 796.067 31.9893 694.964 46.344C604.768 59.4701 516.422 125.728 431.132 189.851C380.602 227.826 328.386 267.084 277.399 293.589C249.933 307.867 224.873 317.535 200.862 323.082C173.849 329.313 148.822 330.275 124.288 326.093C40.9411 311.599 33.8205 248.383 26.2484 181.389C20.9947 135.61 15.653 88.2346 -14.1019 53.0747C-47.8462 13.2895 -109.057 -4.38266 -201.261 -1.07833L-201.236 -1.73094C-191.704 -2.03533 -182.178 -2.1947 -173.109 -2.07014Z" fill="url(#paint24_linear)"/>
<path d="M-162.759 -11.5552C-125.591 -11.0448 -94.6721 -6.5586 -68.6735 2.13936C-40.0291 11.6715 -18.4136 26.1117 -2.51373 46.1308C26.8715 83.1621 31.0816 132.903 35.0549 181.045C41.019 251.191 46.537 317.415 130.146 332.779C176.24 341.1 226.784 330.189 284.185 299.282C335.661 271.629 388.536 230.65 439.572 191.096C525.705 124.318 614.754 55.1864 706.174 41.1378C715.898 39.6756 725.292 39.0793 734.361 39.2038C822.524 40.4144 888.83 111.897 958.564 187.125C1024.87 258.68 1093.46 332.733 1185.64 349.592C1203.96 352.89 1218.87 351.789 1231.58 346.306C1261.68 333.157 1274.86 295.404 1290.21 251.662C1309.23 197.162 1332.91 129.962 1397.79 82.1123C1333.97 129.396 1310.78 195.588 1291.09 251.891C1275.74 295.779 1262.4 333.674 1232 346.965C1219.14 352.591 1203.92 353.687 1185.31 350.313C1092.84 333.304 1024.25 259.18 957.804 187.55C881.074 104.61 808.483 26.2958 706.446 41.7943C615.324 55.847 526.429 124.836 440.299 191.542C389.26 231.168 336.385 272.147 284.757 299.87C256.97 314.792 231.748 324.817 207.431 330.576C180.114 337.019 154.79 337.977 129.97 333.502C45.623 317.983 40.1132 251.542 34.1574 181.178C30.1813 133.108 25.9685 83.4398 -3.27362 46.5555C-36.4941 4.75711 -97.8135 -13.9273 -191.21 -10.4952L-191.186 -11.1477C-181.351 -11.5929 -171.828 -11.6797 -162.759 -11.5552ZM1654.1 19.1937C1700.64 19.8327 1751.79 24.2341 1807.4 32.4683L1807.23 33.1187C1632.83 7.36937 1521.36 20.5625 1447.53 53.3478C1478.55 39.4853 1514.32 29.8947 1555.73 24.4432C1585.63 20.4295 1618.42 18.7038 1654.1 19.1937Z" fill="url(#paint25_linear)"/>
<defs>
<linearGradient id="paint0_linear" x1="1279.74" y1="210.464" x2="-444.479" y2="145.719" gradientUnits="userSpaceOnUse">
<stop offset="0.0208333" stop-color="white"/>
<stop offset="0.177083" stop-color="#A2AE8B"/>
<stop offset="0.869792" stop-color="#ADADAD"/>
<stop offset="1" stop-color="white"/>
</linearGradient>
<linearGradient id="paint1_linear" x1="1300.73" y1="210.674" x2="-434.506" y2="145.554" gradientUnits="userSpaceOnUse">
<stop offset="0.0208333" stop-color="white"/>
<stop offset="0.177083" stop-color="#A2AE8B"/>
<stop offset="0.869792" stop-color="#ADADAD"/>
<stop offset="1" stop-color="white"/>
</linearGradient>
<linearGradient id="paint2_linear" x1="1321.4" y1="211.043" x2="-424.823" y2="145.498" gradientUnits="userSpaceOnUse">
<stop offset="0.0208333" stop-color="white"/>
<stop offset="0.177083" stop-color="#A2AE8B"/>
<stop offset="0.869792" stop-color="#ADADAD"/>
<stop offset="1" stop-color="white"/>
</linearGradient>
<linearGradient id="paint3_linear" x1="1342.22" y1="211.263" x2="-414.682" y2="145.279" gradientUnits="userSpaceOnUse">
<stop offset="0.0208333" stop-color="white"/>
<stop offset="0.177083" stop-color="#A2AE8B"/>
<stop offset="0.869792" stop-color="#ADADAD"/>
<stop offset="1" stop-color="white"/>
</linearGradient>
<linearGradient id="paint4_linear" x1="1363.04" y1="211.414" x2="-404.832" y2="144.968" gradientUnits="userSpaceOnUse">
<stop offset="0.0208333" stop-color="white"/>
<stop offset="0.177083" stop-color="#A2AE8B"/>
<stop offset="0.869792" stop-color="#ADADAD"/>
<stop offset="1" stop-color="white"/>
</linearGradient>
<linearGradient id="paint5_linear" x1="1383.72" y1="211.349" x2="-394.973" y2="144.444" gradientUnits="userSpaceOnUse">
<stop offset="0.0208333" stop-color="white"/>
<stop offset="0.177083" stop-color="#A2AE8B"/>
<stop offset="0.869792" stop-color="#ADADAD"/>
<stop offset="1" stop-color="white"/>
</linearGradient>
<linearGradient id="paint6_linear" x1="1404.84" y1="211.35" x2="-384.966" y2="143.975" gradientUnits="userSpaceOnUse">
<stop offset="0.0208333" stop-color="white"/>
<stop offset="0.177083" stop-color="#A2AE8B"/>
<stop offset="0.869792" stop-color="#ADADAD"/>
<stop offset="1" stop-color="white"/>
</linearGradient>
<linearGradient id="paint7_linear" x1="1425.38" y1="211.137" x2="-375.251" y2="143.306" gradientUnits="userSpaceOnUse">
<stop offset="0.0208333" stop-color="white"/>
<stop offset="0.177083" stop-color="#A2AE8B"/>
<stop offset="0.869792" stop-color="#ADADAD"/>
<stop offset="1" stop-color="white"/>
</linearGradient>
<linearGradient id="paint8_linear" x1="1446.5" y1="210.993" x2="-364.941" y2="142.707" gradientUnits="userSpaceOnUse">
<stop offset="0.0208333" stop-color="white"/>
<stop offset="0.177083" stop-color="#A2AE8B"/>
<stop offset="0.869792" stop-color="#ADADAD"/>
<stop offset="1" stop-color="white"/>
</linearGradient>
<linearGradient id="paint9_linear" x1="1467.33" y1="210.822" x2="-355.224" y2="142.075" gradientUnits="userSpaceOnUse">
<stop offset="0.0208333" stop-color="white"/>
<stop offset="0.177083" stop-color="#A2AE8B"/>
<stop offset="0.869792" stop-color="#ADADAD"/>
<stop offset="1" stop-color="white"/>
</linearGradient>
<linearGradient id="paint10_linear" x1="1488.16" y1="210.62" x2="-345.507" y2="141.413" gradientUnits="userSpaceOnUse">
<stop offset="0.0208333" stop-color="white"/>
<stop offset="0.177083" stop-color="#A2AE8B"/>
<stop offset="0.869792" stop-color="#ADADAD"/>
<stop offset="1" stop-color="white"/>
</linearGradient>
<linearGradient id="paint11_linear" x1="1509.14" y1="210.418" x2="-335.196" y2="140.77" gradientUnits="userSpaceOnUse">
<stop offset="0.0208333" stop-color="white"/>
<stop offset="0.177083" stop-color="#A2AE8B"/>
<stop offset="0.869792" stop-color="#ADADAD"/>
<stop offset="1" stop-color="white"/>
</linearGradient>
<linearGradient id="paint12_linear" x1="1529.97" y1="210.16" x2="-325.328" y2="140.065" gradientUnits="userSpaceOnUse">
<stop offset="0.0208333" stop-color="white"/>
<stop offset="0.177083" stop-color="#A2AE8B"/>
<stop offset="0.869792" stop-color="#ADADAD"/>
<stop offset="1" stop-color="white"/>
</linearGradient>
<linearGradient id="paint13_linear" x1="1550.8" y1="209.876" x2="-315.46" y2="139.334" gradientUnits="userSpaceOnUse">
<stop offset="0.0208333" stop-color="white"/>
<stop offset="0.177083" stop-color="#A2AE8B"/>
<stop offset="0.869792" stop-color="#ADADAD"/>
<stop offset="1" stop-color="white"/>
</linearGradient>
<linearGradient id="paint14_linear" x1="1571.48" y1="209.736" x2="-305.596" y2="138.755" gradientUnits="userSpaceOnUse">
<stop offset="0.0208333" stop-color="white"/>
<stop offset="0.177083" stop-color="#A2AE8B"/>
<stop offset="0.869792" stop-color="#ADADAD"/>
<stop offset="1" stop-color="white"/>
</linearGradient>
<linearGradient id="paint15_linear" x1="1592.31" y1="209.461" x2="-295.729" y2="138.037" gradientUnits="userSpaceOnUse">
<stop offset="0.0208333" stop-color="white"/>
<stop offset="0.177083" stop-color="#A2AE8B"/>
<stop offset="0.869792" stop-color="#ADADAD"/>
<stop offset="1" stop-color="white"/>
</linearGradient>
<linearGradient id="paint16_linear" x1="1613.13" y1="209.247" x2="-285.864" y2="137.382" gradientUnits="userSpaceOnUse">
<stop offset="0.0208333" stop-color="white"/>
<stop offset="0.177083" stop-color="#A2AE8B"/>
<stop offset="0.869792" stop-color="#ADADAD"/>
<stop offset="1" stop-color="white"/>
</linearGradient>
<linearGradient id="paint17_linear" x1="1634.13" y1="208.549" x2="-275.831" y2="136.242" gradientUnits="userSpaceOnUse">
<stop offset="0.0208333" stop-color="white"/>
<stop offset="0.177083" stop-color="#A2AE8B"/>
<stop offset="0.869792" stop-color="#ADADAD"/>
<stop offset="1" stop-color="white"/>
</linearGradient>
<linearGradient id="paint18_linear" x1="1655.03" y1="205.944" x2="-265.724" y2="133.192" gradientUnits="userSpaceOnUse">
<stop offset="0.0208333" stop-color="white"/>
<stop offset="0.177083" stop-color="#A2AE8B"/>
<stop offset="0.869792" stop-color="#ADADAD"/>
<stop offset="1" stop-color="white"/>
</linearGradient>
<linearGradient id="paint19_linear" x1="1676.08" y1="203.354" x2="-255.768" y2="130.148" gradientUnits="userSpaceOnUse">
<stop offset="0.0208333" stop-color="white"/>
<stop offset="0.177083" stop-color="#A2AE8B"/>
<stop offset="0.869792" stop-color="#ADADAD"/>
<stop offset="1" stop-color="white"/>
</linearGradient>
<linearGradient id="paint20_linear" x1="1696.83" y1="200.797" x2="-245.812" y2="127.152" gradientUnits="userSpaceOnUse">
<stop offset="0.0208333" stop-color="white"/>
<stop offset="0.177083" stop-color="#A2AE8B"/>
<stop offset="0.869792" stop-color="#ADADAD"/>
<stop offset="1" stop-color="white"/>
</linearGradient>
<linearGradient id="paint21_linear" x1="1718.03" y1="198.179" x2="-235.705" y2="124.085" gradientUnits="userSpaceOnUse">
<stop offset="0.0208333" stop-color="white"/>
<stop offset="0.177083" stop-color="#A2AE8B"/>
<stop offset="0.869792" stop-color="#ADADAD"/>
<stop offset="1" stop-color="white"/>
</linearGradient>
<linearGradient id="paint22_linear" x1="1739.08" y1="195.692" x2="-225.752" y2="121.152" gradientUnits="userSpaceOnUse">
<stop offset="0.0208333" stop-color="white"/>
<stop offset="0.177083" stop-color="#A2AE8B"/>
<stop offset="0.869792" stop-color="#ADADAD"/>
<stop offset="1" stop-color="white"/>
</linearGradient>
<linearGradient id="paint23_linear" x1="1759.39" y1="193.071" x2="-215.795" y2="118.114" gradientUnits="userSpaceOnUse">
<stop offset="0.0208333" stop-color="white"/>
<stop offset="0.177083" stop-color="#A2AE8B"/>
<stop offset="0.869792" stop-color="#ADADAD"/>
<stop offset="1" stop-color="white"/>
</linearGradient>
<linearGradient id="paint24_linear" x1="1780.44" y1="190.521" x2="-205.542" y2="115.133" gradientUnits="userSpaceOnUse">
<stop offset="0.0208333" stop-color="white"/>
<stop offset="0.177083" stop-color="#A2AE8B"/>
<stop offset="0.869792" stop-color="#ADADAD"/>
<stop offset="1" stop-color="white"/>
</linearGradient>
<linearGradient id="paint25_linear" x1="1801.49" y1="187.926" x2="-195.734" y2="112.091" gradientUnits="userSpaceOnUse">
<stop offset="0.0208333" stop-color="white"/>
<stop offset="0.177083" stop-color="#A2AE8B"/>
<stop offset="0.869792" stop-color="#ADADAD"/>
<stop offset="1" stop-color="white"/>
</linearGradient>
</defs>
</svg>
