<svg width="36" height="37" viewBox="0 0 36 37" fill="none" xmlns="http://www.w3.org/2000/svg">
<g clip-path="url(#clip0)">
<path d="M33.6187 2.40903H29.5354V0.609033C29.5354 0.277233 29.2747 0.0090332 28.9521 0.0090332H24.8687C24.5461 0.0090332 24.2854 0.277233 24.2854 0.609033V2.40903H11.4521V0.609033C11.4521 0.277233 11.1913 0.0090332 10.8687 0.0090332H6.7854C6.46282 0.0090332 6.20207 0.277233 6.20207 0.609033V2.40903H2.11873C1.79615 2.40903 1.5354 2.67723 1.5354 3.00903V9.60903V35.409C1.5354 35.7408 1.79615 36.009 2.11873 36.009H33.6187C33.9413 36.009 34.2021 35.7408 34.2021 35.409V9.60903V3.00903C34.2021 2.67723 33.9413 2.40903 33.6187 2.40903ZM25.4521 1.20903H28.3687V3.00903V4.80903H25.4521V3.00903V1.20903ZM7.36873 1.20903H10.2854V3.00903V4.80903H7.36873V3.00903V1.20903ZM2.70207 3.60903H6.20207V5.40903C6.20207 5.74083 6.46282 6.00903 6.7854 6.00903H10.8687C11.1913 6.00903 11.4521 5.74083 11.4521 5.40903V3.60903H24.2854V5.40903C24.2854 5.74083 24.5461 6.00903 24.8687 6.00903H28.9521C29.2747 6.00903 29.5354 5.74083 29.5354 5.40903V3.60903H33.0354V9.00903H2.70207V3.60903ZM2.70207 34.809V10.209H33.0354V34.809H2.70207Z" fill="#A2AE8B"/>
<path d="M22.5354 13.809H18.4521H17.2854H13.2021H12.0354H6.7854V19.209V20.409V24.609V25.809V31.209H12.0354H13.2021H17.2854H18.4521H22.5354H23.7021H28.9521V25.809V24.609V20.409V19.209V13.809H23.7021H22.5354ZM18.4521 15.009H22.5354V19.209H18.4521V15.009ZM22.5354 24.609H18.4521V20.409H22.5354V24.609ZM13.2021 20.409H17.2854V24.609H13.2021V20.409ZM13.2021 15.009H17.2854V19.209H13.2021V15.009ZM7.95207 15.009H12.0354V19.209H7.95207V15.009ZM7.95207 20.409H12.0354V24.609H7.95207V20.409ZM12.0354 30.009H7.95207V25.809H12.0354V30.009ZM17.2854 30.009H13.2021V25.809H17.2854V30.009ZM22.5354 30.009H18.4521V25.809H22.5354V30.009ZM27.7854 30.009H23.7021V25.809H27.7854V30.009ZM27.7854 24.609H23.7021V20.409H27.7854V24.609ZM27.7854 15.009V19.209H23.7021V15.009H27.7854Z" fill="#676565"/>
</g>
<defs>
<clipPath id="clip0">
<rect width="35" height="36" fill="white" transform="translate(0.368652 0.0090332)"/>
</clipPath>
</defs>
</svg>
