<svg width="47" height="47" viewBox="0 0 47 47" fill="none" xmlns="http://www.w3.org/2000/svg">
<g clip-path="url(#clip0)">
<path d="M14.3202 33.965C13.8135 33.965 13.4022 34.3763 13.4022 34.883C13.4022 35.3897 13.8135 35.801 14.3202 35.801C14.8269 35.801 15.2382 35.3897 15.2382 34.883C15.2382 34.3763 14.8269 33.965 14.3202 33.965Z" fill="#676565"/>
<path d="M41.3215 17.4423L46.731 12.0328C46.9586 11.8052 47.0503 11.4751 46.9729 11.1628C46.8955 10.8504 46.6602 10.6015 46.3526 10.5066L33.1798 6.44089C31.9923 2.62389 28.4629 0.000976562 24.4177 0.000976562C20.6573 0.000976562 17.2942 2.29269 15.9023 5.74976L0.644395 10.5074C0.337702 10.6031 0.103253 10.8522 0.0264188 11.1642C-0.0504152 11.4761 0.0413817 11.8057 0.268579 12.0329L5.82036 17.5847L2.31886 23.4207C2.17557 23.6594 2.14849 23.9503 2.24506 24.2115C2.34163 24.4726 2.55157 24.6758 2.81576 24.7638L7.89424 26.4566V40.5751C7.89424 40.9577 8.13162 41.3002 8.48991 41.4346C11.5951 42.5989 23.1326 46.9261 23.1946 46.948C23.3767 47.0122 23.5819 47.0209 23.7819 46.9562C23.7846 46.9553 23.7873 46.9547 23.79 46.9538L40.3134 41.446C40.6882 41.321 40.9411 40.9702 40.9411 40.5751V26.0785L46.3569 24.3766C46.6632 24.2804 46.8969 24.0313 46.9734 23.7195C47.0497 23.4078 46.9579 23.0788 46.7309 22.8518L41.3215 17.4423ZM33.5974 9.18066C33.5974 8.94741 33.5875 8.7147 33.57 8.48273L44.3556 11.8117L39.7752 16.392L32.2912 13.8976C33.1387 12.4811 33.5974 10.8466 33.5974 9.18066ZM17.4711 6.79137C18.4902 3.82799 21.2818 1.83691 24.4177 1.83691C27.7959 1.83691 30.7259 4.12192 31.5428 7.39356C31.6879 7.97491 31.7614 8.57618 31.7614 9.18066C31.7614 10.8857 31.1956 12.4838 30.1249 13.8028C28.7225 15.5325 26.6423 16.5244 24.4177 16.5244C22.013 16.5244 19.7574 15.3441 18.3836 13.3662C17.5269 12.1356 17.0739 10.6882 17.0739 9.18066C17.0739 8.36083 17.2075 7.55696 17.4711 6.79137ZM2.64024 11.8082L15.3358 7.84952C15.272 8.28812 15.238 8.73242 15.238 9.18057C15.238 10.6586 15.5881 12.0902 16.2555 13.3818L7.22421 16.392L2.64024 11.8082ZM4.48196 23.3839L7.38458 18.5461L22.1238 23.4591L19.2212 28.297C17.6474 27.7724 6.1624 23.944 4.48196 23.3839ZM22.5817 44.7584L9.73018 39.939V27.0686C19.8416 30.4212 19.3478 30.3188 19.6294 30.3188C19.945 30.3188 20.2472 30.1555 20.4167 29.8731L22.5817 26.2644V44.7584ZM23.4997 21.9826L9.87925 17.4425L17.2959 14.9704C19.0318 17.1044 21.645 18.3603 24.4177 18.3603C26.9827 18.3603 29.3933 17.3048 31.1273 15.445L37.1202 17.4424L23.4997 21.9826ZM39.1052 39.9135L24.4177 44.8093V25.5669L27.672 29.6344C27.9087 29.9302 28.3028 30.0501 28.664 29.9367L39.1052 26.6556V39.9135ZM28.713 27.9969L25.039 23.4047L39.7752 18.4926L44.3617 23.0792L28.713 27.9969Z" fill="#A2AE8B"/>
<path d="M20.1504 36.0025L18.1089 35.2369C17.6342 35.059 17.1051 35.2994 16.927 35.7741C16.749 36.2489 16.9895 36.778 17.4642 36.956L19.5057 37.7216C19.9814 37.8999 20.5099 37.6583 20.6876 37.1844C20.8656 36.7097 20.6251 36.1805 20.1504 36.0025Z" fill="#676565"/>
<path d="M20.1503 39.9241L14.6425 37.8587C14.1678 37.6807 13.6387 37.9212 13.4606 38.3959C13.2825 38.8706 13.5231 39.3998 13.9978 39.5778L19.5056 41.6432C19.6118 41.683 19.7207 41.7019 19.8278 41.7019C20.1995 41.7019 20.5492 41.4746 20.6875 41.106C20.8656 40.6312 20.6251 40.1021 20.1503 39.9241Z" fill="#676565"/>
<path d="M29.657 5.77682C29.2985 5.41826 28.7173 5.41835 28.3587 5.77682L23.5 10.6356L22.3131 9.44879C21.9547 9.09032 21.3734 9.09032 21.0149 9.44879C20.6563 9.80725 20.6564 10.3885 21.0149 10.7471L22.8509 12.5829C23.2094 12.9414 23.7906 12.9414 24.1492 12.5829L29.657 7.0751C30.0154 6.71664 30.0154 6.13538 29.657 5.77682Z" fill="#676565"/>
</g>
<defs>
<clipPath id="clip0">
<rect width="47" height="47" fill="white"/>
</clipPath>
</defs>
</svg>
