<svg width="44" height="41" viewBox="0 0 44 41" fill="none" xmlns="http://www.w3.org/2000/svg">
<circle cx="2.57894" cy="2.33455" r="2.15853" fill="#676565"/>
<circle cx="2.66541" cy="2.24885" r="0.863412" fill="white"/>
<circle cx="41.2596" cy="2.16256" r="2.15853" fill="#676565"/>
<circle cx="41.3461" cy="2.07618" r="0.863412" fill="white"/>
<path d="M4.56494 1.4718H39.2741V2.9396H4.56494V1.4718Z" fill="#676565" stroke="#676565"/>
<rect x="37.0291" y="2.93964" width="1.55414" height="35.5726" fill="#A2AE8B"/>
<rect x="5.25537" y="2.93964" width="1.55414" height="35.5726" fill="#A2AE8B"/>
<path d="M5.25537 38.1668H14.4075V39.5483H6.63683C5.87387 39.5483 5.25537 38.9298 5.25537 38.1668Z" fill="#A2AE8B"/>
<path d="M29.6038 38.1668H38.5832C38.5832 38.9298 37.9647 39.5483 37.2018 39.5483H29.6038V38.1668Z" fill="#A2AE8B"/>
<path d="M15.789 39.721C14.8911 40.2045 13.9759 39.8073 13.6305 39.5483L14.0622 38.5122H14.9256C15.789 38.5985 16.3071 37.4761 16.3071 37.3034C16.3071 37.1307 16.5661 36.0083 17.1705 36.2673C17.7749 36.5263 17.6885 36.699 17.7749 37.3897C17.8612 38.0805 18.5519 38.4258 19.4154 38.4258C20.2788 38.4258 20.7968 37.9078 20.7968 37.1307C20.7968 36.3537 21.3149 36.2673 21.4012 36.2673C21.4875 36.2673 22.0056 36.181 22.2646 36.8717C22.5236 37.5624 22.0919 38.2532 23.7324 38.4258C25.3729 38.5985 25.2002 37.0444 25.2865 37.0444C25.3729 37.0444 25.2865 36.3537 26.0636 36.2673C26.6853 36.1982 26.7831 36.8141 26.7543 37.1307C26.7256 37.3322 26.8234 37.856 27.4451 38.3395C28.0667 38.823 28.9129 38.4258 29.2582 38.1668C30.0641 38.3971 31.2096 39.013 29.3446 39.6346C27.4796 40.2563 26.4953 39.3756 26.2363 38.8576H25.9773C25.9197 39.0878 25.4938 39.6174 24.2505 39.8936C23.0071 40.1699 22.0631 39.318 21.7466 38.8576H21.4875C21.1997 39.1454 20.3824 39.7555 19.4154 39.8936C18.4483 40.0318 17.5158 39.2605 17.1705 38.8576H16.8251C16.8539 38.9439 16.687 39.2375 15.789 39.721Z" fill="#A2AE8B" stroke="#A2AE8B"/>
<path d="M13.5442 6.91136C13.0607 6.01342 12.4793 6.53722 12.2491 6.91136V8.12012C11.99 11.0557 10.9539 12.8689 10.6949 13.4733C10.4877 13.9568 9.45737 15.1713 8.96809 15.7181C8.62273 17.0133 9.48614 16.6679 9.65882 16.7542C9.79697 16.8233 10.5798 15.862 10.9539 15.3728C13.0261 13.0416 13.4578 9.67426 13.5442 8.63817C13.6132 7.8093 13.573 7.1416 13.5442 6.91136Z" fill="#A2AE8B"/>
<path d="M30.2944 6.91136C30.4671 6.50844 30.9506 5.94436 31.5031 6.91136C32.0557 7.87837 31.7334 7.42938 31.5031 7.08401C31.5031 7.80352 31.5377 9.34615 31.6758 9.76059C31.8485 10.2786 32.6256 12.8689 34.007 14.682C34.5944 15.453 34.854 15.6464 34.9584 15.6604C34.9735 15.4081 35.0906 15.6783 34.9584 15.6604C34.9573 15.6773 34.9568 15.6964 34.9568 15.7181C34.9568 16.3225 34.9568 17.4449 33.5753 16.4089C32.1939 15.3728 30.8124 11.6601 30.5534 10.5377C30.4671 9.99084 30.2944 8.7418 30.2944 8.12012V6.91136Z" fill="#A2AE8B"/>
<path d="M17.9476 4.32109C17.395 4.25202 17.1417 4.81036 17.0842 5.09816C17.0266 5.38597 16.7906 6.54869 16.3071 8.89717C15.7027 11.8328 13.9759 14.7684 13.3715 15.7181C12.888 16.478 11.5583 17.9342 10.9539 18.5674C10.8158 19.8798 11.7598 19.4596 12.2491 19.0854C16.1862 16.806 17.9764 9.21376 18.3793 5.70255C18.4656 5.27084 18.5002 4.39017 17.9476 4.32109Z" fill="#A2AE8B"/>
<path d="M26.668 4.7528C25.5629 3.78578 25.4017 4.98304 25.4593 5.70255C25.4593 5.99035 25.6319 7.3603 26.3227 10.5377C27.0134 13.715 29.7188 17.1571 30.9851 18.481C31.8485 19.5171 32.5392 19.8625 32.7983 19.3445C33.0573 18.8264 32.7119 18.3084 32.4529 18.1357C32.1939 17.963 31.5031 17.1859 29.5173 14.3367C27.9286 12.0573 26.9558 6.99767 26.668 4.7528Z" fill="#A2AE8B"/>
<path d="M22.0056 4.32109C21.7293 4.18295 21.3725 4.66646 21.2285 4.92548C21.2285 5.52986 21.1422 7.01493 20.7968 8.12012C20.3651 9.50162 20.5378 11.5737 18.3793 15.7181C16.6525 19.0337 13.1125 20.9562 11.5583 21.503V21.762L12.5081 22.7117C12.3354 22.8556 12.3009 22.9708 13.5442 22.28C15.0983 21.4166 16.3071 20.2942 18.2066 18.481C19.7262 17.0305 21.1998 12.8113 21.7466 10.883V10.0196C21.8042 10.1059 22.0056 10.5376 22.351 11.5737C22.7827 12.8689 23.0417 14.164 24.5095 16.9269C25.6838 19.1372 28.51 21.1864 29.7763 21.9347L30.6397 21.762L32.1075 21.2439C31.7334 21.2439 30.6225 20.9677 29.1719 19.8625C27.3588 18.481 27.7905 18.6537 25.9773 16.4089C24.1641 14.164 22.869 8.37911 22.7827 6.39327C22.6963 4.40742 22.351 4.49377 22.0056 4.32109Z" fill="#A2AE8B"/>
<path d="M14.4939 32.7273C14.4249 30.2407 13.1413 25.82 12.5081 23.9205L11.213 24.1795L11.472 24.8703L11.8174 25.9927C11.9613 26.7986 12.3354 28.7384 12.6808 30.0507C13.1125 31.6912 13.2852 34.0224 13.2852 34.8858V38.4258H13.0261L13.2852 38.5985L14.4939 39.3756C14.5515 39.3468 14.6666 39.0475 14.6666 38.0805C14.6666 37.1134 14.5515 34.1088 14.4939 32.7273Z" fill="#A2AE8B"/>
<path d="M31.6758 24.3522L32.4529 25.043C32.309 25.5034 31.9867 26.5108 31.8485 26.8561C31.6758 27.2878 30.9851 29.9644 30.6397 32.8137C30.3634 35.0931 30.5246 37.4473 30.6397 38.3395L30.8124 38.5985L29.1719 38.3395V37.3034C29.1719 36.6127 29.1719 33.159 29.431 31.0868C29.6382 29.4291 30.5534 26.1942 30.9851 24.7839L31.6758 24.3522Z" fill="#A2AE8B"/>
<path d="M13.5442 6.91136C13.0607 6.01342 12.4793 6.53722 12.2491 6.91136V8.12012C11.99 11.0557 10.9539 12.8689 10.6949 13.4733C10.4877 13.9568 9.45737 15.1713 8.96809 15.7181C8.62273 17.0133 9.48614 16.6679 9.65882 16.7542C9.79697 16.8233 10.5798 15.862 10.9539 15.3728C13.0261 13.0416 13.4578 9.67426 13.5442 8.63817C13.6132 7.8093 13.573 7.1416 13.5442 6.91136Z" stroke="#A2AE8B"/>
<path d="M30.2944 6.91136C30.4671 6.50844 30.9506 5.94436 31.5031 6.91136C32.0557 7.87837 31.7334 7.42938 31.5031 7.08401C31.5031 7.80352 31.5377 9.34615 31.6758 9.76059C31.8485 10.2786 32.6256 12.8689 34.007 14.682C34.5944 15.453 34.854 15.6464 34.9584 15.6604C34.9735 15.4081 35.0906 15.6783 34.9584 15.6604C34.9573 15.6773 34.9568 15.6964 34.9568 15.7181C34.9568 16.3225 34.9568 17.4449 33.5753 16.4089C32.1939 15.3728 30.8124 11.6601 30.5534 10.5377C30.4671 9.99084 30.2944 8.7418 30.2944 8.12012V6.91136Z" stroke="#A2AE8B"/>
<path d="M17.9476 4.32109C17.395 4.25202 17.1417 4.81036 17.0842 5.09816C17.0266 5.38597 16.7906 6.54869 16.3071 8.89717C15.7027 11.8328 13.9759 14.7684 13.3715 15.7181C12.888 16.478 11.5583 17.9342 10.9539 18.5674C10.8158 19.8798 11.7598 19.4596 12.2491 19.0854C16.1862 16.806 17.9764 9.21376 18.3793 5.70255C18.4656 5.27084 18.5002 4.39017 17.9476 4.32109Z" stroke="#A2AE8B"/>
<path d="M26.668 4.7528C25.5629 3.78578 25.4017 4.98304 25.4593 5.70255C25.4593 5.99035 25.6319 7.3603 26.3227 10.5377C27.0134 13.715 29.7188 17.1571 30.9851 18.481C31.8485 19.5171 32.5392 19.8625 32.7983 19.3445C33.0573 18.8264 32.7119 18.3084 32.4529 18.1357C32.1939 17.963 31.5031 17.1859 29.5173 14.3367C27.9286 12.0573 26.9558 6.99767 26.668 4.7528Z" stroke="#A2AE8B"/>
<path d="M22.0056 4.32109C21.7293 4.18295 21.3725 4.66646 21.2285 4.92548C21.2285 5.52986 21.1422 7.01493 20.7968 8.12012C20.3651 9.50162 20.5378 11.5737 18.3793 15.7181C16.6525 19.0337 13.1125 20.9562 11.5583 21.503V21.762L12.5081 22.7117C12.3354 22.8556 12.3009 22.9708 13.5442 22.28C15.0983 21.4166 16.3071 20.2942 18.2066 18.481C19.7262 17.0305 21.1998 12.8113 21.7466 10.883V10.0196C21.8042 10.1059 22.0056 10.5376 22.351 11.5737C22.7827 12.8689 23.0417 14.164 24.5095 16.9269C25.6838 19.1372 28.51 21.1864 29.7763 21.9347L30.6397 21.762L32.1075 21.2439C31.7334 21.2439 30.6225 20.9677 29.1719 19.8625C27.3588 18.481 27.7905 18.6537 25.9773 16.4089C24.1641 14.164 22.869 8.37911 22.7827 6.39327C22.6963 4.40742 22.351 4.49377 22.0056 4.32109Z" stroke="#A2AE8B"/>
<path d="M14.4939 32.7273C14.4249 30.2407 13.1413 25.82 12.5081 23.9205L11.213 24.1795L11.472 24.8703L11.8174 25.9927C11.9613 26.7986 12.3354 28.7384 12.6808 30.0507C13.1125 31.6912 13.2852 34.0224 13.2852 34.8858V38.4258H13.0261L13.2852 38.5985L14.4939 39.3756C14.5515 39.3468 14.6666 39.0475 14.6666 38.0805C14.6666 37.1134 14.5515 34.1088 14.4939 32.7273Z" stroke="#A2AE8B"/>
<path d="M31.6758 24.3522L32.4529 25.043C32.309 25.5034 31.9867 26.5108 31.8485 26.8561C31.6758 27.2878 30.9851 29.9644 30.6397 32.8137C30.3634 35.0931 30.5246 37.4473 30.6397 38.3395L30.8124 38.5985L29.1719 38.3395V37.3034C29.1719 36.6127 29.1719 33.159 29.431 31.0868C29.6382 29.4291 30.5534 26.1942 30.9851 24.7839L31.6758 24.3522Z" stroke="#A2AE8B"/>
<circle cx="31.5896" cy="22.8844" r="2.15853" fill="#676565"/>
<circle cx="36.7705" cy="22.8844" r="2.15853" fill="#676565"/>
<rect x="31.6763" y="20.7259" width="5.18047" height="1.55414" fill="#676565"/>
<rect x="31.6763" y="23.6615" width="5.35315" height="1.38146" fill="#676565"/>
<circle cx="36.684" cy="22.9708" r="0.690729" fill="white"/>
<circle cx="31.6761" cy="22.9708" r="0.690729" fill="white"/>
<rect x="31.6763" y="22.28" width="5.18047" height="1.38146" fill="white"/>
<circle cx="5.68734" cy="22.8844" r="2.15853" fill="#676565"/>
<circle cx="10.8679" cy="22.8844" r="2.15853" fill="#676565"/>
<rect x="5.77368" y="20.7259" width="5.18047" height="1.55414" fill="#676565"/>
<rect x="5.77368" y="23.6615" width="5.35315" height="1.38146" fill="#676565"/>
<circle cx="10.7814" cy="22.9708" r="0.690729" fill="white"/>
<circle cx="5.77374" cy="22.9708" r="0.690729" fill="white"/>
<rect x="5.77368" y="22.28" width="5.18047" height="1.38146" fill="white"/>
<rect x="21.1425" y="16.0635" width="1.55414" height="6.90729" rx="0.77707" fill="#A2AE8B"/>
<rect x="21.1425" y="24.0068" width="1.55414" height="3.79901" rx="0.77707" fill="#A2AE8B"/>
<rect x="16.3071" y="23.6615" width="1.55414" height="11.7424" rx="0.77707" fill="#A2AE8B"/>
<rect x="25.2865" y="27.8058" width="1.55414" height="6.21656" rx="0.77707" fill="#A2AE8B"/>
</svg>
