<svg width="45" height="41" viewBox="0 0 45 41" fill="none" xmlns="http://www.w3.org/2000/svg">
<path d="M43.5938 0.171875H1.40625C1.21977 0.171875 1.04093 0.255831 0.909066 0.405274C0.777204 0.554717 0.703125 0.757406 0.703125 0.96875V39.2188C0.703125 39.4301 0.777204 39.6328 0.909066 39.7822C1.04093 39.9317 1.21977 40.0156 1.40625 40.0156H7.73438C7.92086 40.0156 8.0997 39.9317 8.23156 39.7822C8.36342 39.6328 8.4375 39.4301 8.4375 39.2188V26.4688H14.7656C14.9521 26.4688 15.1309 26.3848 15.2628 26.2354C15.3947 26.0859 15.4688 25.8832 15.4688 25.6719V19.2969H24.6094C24.7958 19.2968 24.9747 19.2128 25.1065 19.0634L30.0284 13.4853C30.1602 13.3359 30.2343 13.1332 30.2344 12.9219V6.54688H43.5938C43.7802 6.54688 43.9591 6.46292 44.0909 6.31348C44.2228 6.16403 44.2969 5.96134 44.2969 5.75V0.96875C44.2969 0.757406 44.2228 0.554717 44.0909 0.405274C43.9591 0.255831 43.7802 0.171875 43.5938 0.171875ZM14.0625 24.875H7.73438C7.54789 24.875 7.36905 24.959 7.23719 25.1084C7.10533 25.2578 7.03125 25.4605 7.03125 25.6719V38.4219H2.10938V19.2969H14.0625V24.875ZM28.8281 12.592L24.3183 17.7031H2.10938V6.54688H28.8281V12.592ZM42.8906 4.95312H2.10938V1.76562H42.8906V4.95312Z" fill="#A2AE8B"/>
</svg>
