<svg width="28" height="29" viewBox="0 0 28 29" fill="none" xmlns="http://www.w3.org/2000/svg">
<g clip-path="url(#clip0)">
<path d="M37.3266 21.3837C37.5453 20.7389 37.6658 20.0464 37.6658 19.325C37.6658 15.8907 34.968 13.0967 31.6522 13.0967C29.3125 13.0967 27.1991 14.5203 26.2166 16.6599C25.7357 16.5456 25.2359 16.4833 24.722 16.4833C24.2076 16.4833 23.7072 16.5458 23.2258 16.6603C22.2452 14.5205 20.1315 13.0967 17.789 13.0967C14.4748 13.0967 11.7784 15.8907 11.7784 19.325C11.7784 20.0455 11.8985 20.7373 12.1167 21.3816C10.4168 23.0139 9.45529 25.2746 9.45529 27.6954V30.6572C9.45529 32.5337 10.928 34.0604 12.7382 34.0604H15.405V36.2491C15.405 38.3022 17.0164 39.9724 18.997 39.9724H20.2751C20.813 39.9724 21.249 39.5208 21.249 38.9637C21.249 38.4066 20.813 37.955 20.2751 37.955H18.997C18.0903 37.955 17.3528 37.1897 17.3528 36.2491V33.0517V32.8946C17.3528 30.9012 18.0935 29.0276 19.4149 27.6099C20.6378 29.2622 22.5613 30.3305 24.7221 30.3305C26.8829 30.3305 28.8064 29.2623 30.0293 27.61C31.3507 29.0277 32.0915 30.9013 32.0915 32.8946V33.0517V36.2491C32.0915 37.1897 31.3526 37.955 30.4443 37.955H29.1774C28.6396 37.955 28.2035 38.4066 28.2035 38.9637C28.2035 39.5208 28.6396 39.9724 29.1774 39.9724H30.4443C32.4266 39.9724 34.0392 38.3022 34.0392 36.2491V34.0604H36.703C38.5149 34.0604 39.9888 32.5337 39.9888 30.6572V27.6954C39.9887 25.2768 39.027 23.0169 37.3266 21.3837ZM15.4411 32.0417C15.441 32.0422 15.4409 32.0426 15.4408 32.0431H12.7382C12.002 32.0431 11.403 31.4214 11.403 30.6573V27.6955C11.403 26.0119 12.0119 24.4294 13.1001 23.2153C14.2027 24.6392 15.8943 25.5533 17.789 25.5533C17.9799 25.5533 18.1698 25.5436 18.3583 25.5251C18.3847 25.6101 18.4117 25.6949 18.4412 25.7783C16.7063 27.4185 15.6447 29.6354 15.4411 32.0417ZM18.0371 23.407C18.0371 23.4474 18.0394 23.4873 18.0401 23.5275C17.9569 23.5328 17.8731 23.536 17.789 23.536C15.5488 23.536 13.7263 21.647 13.7263 19.3252C13.7263 17.0033 15.5488 15.1143 17.789 15.1143C19.3276 15.1143 20.7198 16.0223 21.4056 17.3994C19.3952 18.5943 18.0371 20.8388 18.0371 23.407ZM24.722 28.3131C22.1099 28.3131 19.985 26.1123 19.985 23.4069C19.985 20.7015 22.1099 18.5007 24.722 18.5007C27.3341 18.5007 29.4592 20.7015 29.4592 23.4069C29.4592 26.1123 27.3341 28.3131 24.722 28.3131ZM28.037 17.3984C28.7246 16.0216 30.116 15.1141 31.6522 15.1141C33.894 15.1141 35.718 17.0031 35.718 19.325C35.718 21.6468 33.894 23.5358 31.6522 23.5358C31.5691 23.5358 31.4862 23.5326 31.404 23.5275C31.4047 23.4872 31.407 23.4474 31.407 23.4069C31.407 20.8382 30.0481 18.5934 28.037 17.3984ZM38.0409 30.6573C38.0409 31.4214 37.4407 32.0431 36.7029 32.0431H34.0031C33.7999 29.6363 32.7382 27.4189 31.0028 25.7784C31.0324 25.695 31.0593 25.6102 31.0858 25.5252C31.2732 25.5437 31.4622 25.5533 31.6522 25.5533C33.5473 25.5533 35.2393 24.6398 36.3424 23.2165C37.4315 24.4312 38.0409 26.0134 38.0409 27.6955V30.6573Z" fill="#393939"/>
<path d="M46.9677 21.0454H45.4326C44.9735 19.2665 44.294 17.5657 43.4056 15.9714L44.5017 14.8361C45.8546 13.4349 45.855 11.1522 44.5013 9.74616L41.9174 7.07291C41.2633 6.39547 40.3912 6.02239 39.4617 6.02239C38.5322 6.02239 37.6601 6.39547 37.0067 7.07231L35.9077 8.20854C34.3483 7.27615 32.6873 6.5668 30.952 6.092V4.52758C30.952 2.54357 29.3937 0.929443 27.4782 0.929443H23.8262C21.9106 0.929443 20.3522 2.54357 20.3522 4.52758V6.13631C18.6437 6.61831 17.0131 7.32566 15.4873 8.24645L14.4048 7.12522C13.7494 6.44648 12.8765 6.0727 11.9468 6.0727C11.0165 6.0727 10.144 6.44688 9.49125 7.12482L6.90632 9.79907C5.55151 11.2022 5.55151 13.4853 6.90632 14.8886L8.01573 16.0375C7.14301 17.6159 6.4759 19.2945 6.02539 21.0454H4.47416C2.55847 21.0454 1 22.6595 1 24.6435V28.4258C1 30.4098 2.55847 32.0239 4.47416 32.0239H6.03572C6.49405 33.7896 7.17015 35.4777 8.05272 37.0604L6.95682 38.1954C5.60395 39.5966 5.60347 41.8793 6.95682 43.2849L9.53837 45.9587C10.1924 46.6361 11.0649 47.0092 11.9953 47.0092C12.9256 47.0092 13.7982 46.6362 14.4523 45.9587L15.5486 44.8234C17.0826 45.7405 18.7162 46.4419 20.4222 46.916V48.5389C20.4222 50.5245 21.9807 52.14 23.8962 52.14H27.548C29.4636 52.14 31.0221 50.5245 31.0221 48.5389V46.9193C32.7346 46.4441 34.3723 45.7416 35.9077 44.8233L37.0059 45.9588C37.6599 46.6361 38.5321 47.0091 39.4617 47.0091C40.3911 47.0091 41.2631 46.6361 41.917 45.959L44.5025 43.2838C45.8548 41.8792 45.8543 39.5965 44.5015 38.1954L43.4051 37.0598C44.289 35.4728 44.9653 33.7848 45.4227 32.0238H46.9675C48.8847 32.0238 50.4444 30.4097 50.4444 28.4257V24.6434C50.4446 22.6595 48.8849 21.0454 46.9677 21.0454ZM48.4969 28.4258C48.4969 29.2974 47.8108 30.0065 46.9677 30.0065H44.6615C44.2071 30.0065 43.8132 30.332 43.7121 30.7909C43.2528 32.8754 42.4593 34.8563 41.3536 36.6786C41.1119 37.0771 41.1683 37.5957 41.4895 37.9285L43.1243 39.6219C43.7188 40.2376 43.7183 41.2414 43.1247 41.8581L40.5402 44.5322C40.2539 44.8286 39.8709 44.9918 39.4617 44.9918C39.0525 44.9918 38.6696 44.8286 38.3828 44.5317L36.7452 42.8384C36.4234 42.5057 35.9224 42.4478 35.5381 42.6985C33.7792 43.8457 31.8594 44.6692 29.8325 45.1463C29.389 45.2508 29.0744 45.659 29.0744 46.1299V48.539C29.0744 49.4123 28.3897 50.1227 27.5481 50.1227H23.8963C23.0547 50.1227 22.37 49.4122 22.37 48.539V46.1271C22.37 45.6562 22.0555 45.2481 21.6122 45.1435C19.593 44.6676 17.677 43.8451 15.9173 42.6984C15.7575 42.5942 15.5777 42.5435 15.399 42.5435C15.1473 42.5435 14.898 42.6442 14.7101 42.839L13.0751 44.5323C12.7889 44.8287 12.4054 44.9919 11.9953 44.9919C11.5852 44.9919 11.2017 44.8287 10.9156 44.5324L8.335 41.8597C7.73992 41.2415 7.73954 40.2378 8.33403 39.622L9.96889 37.9286C10.2905 37.5956 10.3467 37.0763 10.1042 36.6778C9.00057 34.8634 8.20733 32.8828 7.74639 30.791C7.64528 30.3322 7.25127 30.0067 6.7969 30.0067H4.47416C3.63254 30.0067 2.94785 29.2977 2.94785 28.426V24.6437C2.94785 23.7721 3.63254 23.063 4.47416 23.063H6.78879C7.24412 23.063 7.63862 22.7361 7.73886 22.2761C8.19053 20.2009 8.97401 18.2287 10.0674 16.4145C10.3074 16.0162 10.2504 15.4991 9.92988 15.1672L8.28372 13.4623C7.68835 12.8457 7.68835 11.8424 8.28333 11.2262L10.8692 8.55091C11.1553 8.25385 11.5379 8.09022 11.9468 8.09022C12.3561 8.09022 12.74 8.25425 13.0274 8.55191L14.6511 10.2336C14.9736 10.5677 15.4771 10.6251 15.8622 10.3716C17.6094 9.22125 19.5218 8.39128 21.5462 7.90478C21.9875 7.79876 22.3 7.39147 22.3 6.92228V4.52758C22.3 3.6559 22.9846 2.94686 23.8262 2.94686H27.4782C28.3196 2.94686 29.0043 3.6559 29.0043 4.52758V6.88427C29.0043 7.35656 29.3208 7.76575 29.7659 7.86867C31.813 8.34217 33.7553 9.17144 35.5386 10.3333C35.9231 10.5839 36.4238 10.5257 36.7452 10.1933L38.3835 8.4994C38.6697 8.20304 39.0526 8.0398 39.4618 8.0398C39.8709 8.0398 40.254 8.20304 40.5405 8.4998L43.1235 11.1722C43.7185 11.7903 43.7189 12.7941 43.1244 13.4098L41.4896 15.1032C41.1682 15.4361 41.112 15.9551 41.3541 16.3535C42.4633 18.1793 43.2594 20.1724 43.7203 22.2772C43.821 22.7367 44.2152 23.0629 44.6701 23.0629H46.9678C47.8109 23.0629 48.497 23.772 48.497 24.6436V28.4258H48.4969Z" fill="#393939"/>
</g>
<defs>
<clipPath id="clip0">
<rect width="28" height="29" fill="white"/>
</clipPath>
</defs>
</svg>
