<svg width="29" height="28" viewBox="0 0 29 28" fill="none" xmlns="http://www.w3.org/2000/svg">
<g clip-path="url(#clip0)">
<path d="M18.3259 21.9138C17.8827 21.9138 17.5229 22.2736 17.5229 22.7168C17.5229 23.16 17.8827 23.5197 18.3259 23.5197C18.7691 23.5197 19.1288 23.16 19.1288 22.7168C19.1288 22.2736 18.7691 21.9138 18.3259 21.9138Z" fill="$main"/>
<path d="M39.29 0.555664C38.6734 0.555664 38.1107 0.788708 37.6841 1.17105C37.2576 0.788708 36.6949 0.555664 36.0783 0.555664H6.20854C5.60977 0.555664 5.04426 0.773025 4.6017 1.17042C4.17544 0.788394 3.61275 0.555664 2.99674 0.555664C1.66842 0.555664 0.587891 1.6362 0.587891 2.96451C0.587891 4.29283 1.66842 5.37336 2.99674 5.37336C3.61338 5.37336 4.17607 5.14032 4.60264 4.75797C4.95361 5.07288 5.39743 5.28585 5.88736 5.3514V38.4549C5.88736 40.2292 7.32451 41.6667 9.09915 41.6667C10.0574 41.6667 10.918 41.2445 11.5071 40.5767C12.13 41.2821 12.9969 41.6667 13.9168 41.6667C14.8754 41.6667 15.7367 41.2439 16.3257 40.5758C16.9147 41.2439 17.776 41.6667 18.7345 41.6667C19.6928 41.6667 20.5534 41.2445 21.1425 40.5767C21.7654 41.2821 22.6323 41.6667 23.5522 41.6667C25.3231 41.6667 26.764 40.2257 26.764 38.4549V36.849H33.9906C35.3189 36.849 36.3994 35.7684 36.3994 34.4401V10.994C36.3994 9.66569 35.3189 8.58516 33.9906 8.58516H26.764V5.37336H36.0783C36.677 5.37336 37.2425 5.156 37.6851 4.7586C38.1113 5.14063 38.674 5.37336 39.29 5.37336C40.6184 5.37336 41.6989 4.29283 41.6989 2.96451C41.6989 1.6362 40.6184 0.555664 39.29 0.555664ZM2.99674 3.76746C2.55386 3.76746 2.19379 3.40739 2.19379 2.96451C2.19379 2.52164 2.55386 2.16156 2.99674 2.16156C3.43962 2.16156 3.79969 2.52164 3.79969 2.96451C3.79969 3.40739 3.43962 3.76746 2.99674 3.76746ZM9.09915 40.0608C8.21215 40.0608 7.49325 39.3419 7.49325 38.4549V5.37336H10.7051V38.4549C10.7051 39.3403 9.98459 40.0608 9.09915 40.0608ZM18.7345 40.0608C17.8491 40.0608 17.1286 39.3403 17.1286 38.4549V25.9289C17.1286 25.4854 16.7692 25.1259 16.3257 25.1259C15.8822 25.1259 15.5227 25.4854 15.5227 25.9289V38.4549C15.5227 39.3403 14.8023 40.0608 13.9168 40.0608C13.0298 40.0608 12.311 39.3419 12.311 38.4549V5.37336H15.5227V19.5053C15.5227 19.9488 15.8822 20.3082 16.3257 20.3082C16.7692 20.3082 17.1286 19.9488 17.1286 19.5053V5.37336H20.3404V38.4549C20.3404 39.3403 19.62 40.0608 18.7345 40.0608ZM26.764 23.52H31.5817V32.0313H26.764V23.52ZM31.5817 21.9141H26.764V13.4029H31.5817V21.9141ZM33.9906 10.1911C34.4335 10.1911 34.7935 10.5511 34.7935 10.994V34.4401C34.7935 34.883 34.4335 35.2431 33.9906 35.2431H26.764V33.6372H32.3847C32.8282 33.6372 33.1876 33.2777 33.1876 32.8342V12.5999C33.1876 12.1564 32.8282 11.797 32.3847 11.797H26.764V10.1911H33.9906ZM25.1581 38.4549C25.1581 39.3403 24.4377 40.0608 23.5522 40.0608C22.6652 40.0608 21.9463 39.3419 21.9463 38.4549V5.37336H25.1581V38.4549ZM36.0783 3.76746H6.20854C5.76566 3.76746 5.40559 3.40739 5.40559 2.96451C5.40559 2.52132 5.76503 2.16156 6.20854 2.16156H36.0783C36.5211 2.16156 36.8812 2.52164 36.8812 2.96451C36.8812 3.4077 36.5218 3.76746 36.0783 3.76746ZM39.29 3.76746C38.8472 3.76746 38.4871 3.40739 38.4871 2.96451C38.4871 2.52164 38.8472 2.16156 39.29 2.16156C39.7329 2.16156 40.093 2.52164 40.093 2.96451C40.093 3.40739 39.7329 3.76746 39.29 3.76746Z" fill="$main"/>
</g>
<defs>
<clipPath id="clip0">
<rect width="28" height="28" fill="white" transform="translate(0.143555)"/>
</clipPath>
</defs>
</svg>
