<svg width="31" height="30" viewBox="0 0 31 30" fill="none" xmlns="http://www.w3.org/2000/svg">
<g clip-path="url(#clip0)">
<path d="M52.4886 -8.52538C52.0627 -8.52538 51.7172 -8.17987 51.7172 -7.754V25.2095H50.1744V-13.1022C50.1744 -13.5281 49.8289 -13.8736 49.4031 -13.8736H4.45747C4.03161 -13.8736 3.6861 -13.5281 3.6861 -13.1022V25.2095H2.14334V21.8669C2.14334 21.441 1.79783 21.0955 1.37196 21.0955C0.946099 21.0955 0.600586 21.441 0.600586 21.8669V25.9809C0.600586 26.4072 0.946099 26.7523 1.37196 26.7523H3.6861V27.0094C3.6861 27.4357 4.03161 27.7808 4.45747 27.7808H12.3038C12.526 27.7808 12.7377 27.6852 12.884 27.518C13.0306 27.3509 13.0977 27.1287 13.0688 26.9082L13.0483 26.7523H36.8039C37.2298 26.7523 37.5753 26.4068 37.5753 25.9809C37.5753 25.5546 37.2298 25.2095 36.8039 25.2095H12.8442L12.6405 23.6668H41.22L41.0163 25.2095H40.0951C39.6693 25.2095 39.3237 25.5546 39.3237 25.9809C39.3237 26.4068 39.6693 26.7523 40.0951 26.7523H40.8127L40.7918 26.9082C40.7628 27.1287 40.8303 27.3509 40.9766 27.518C41.1232 27.6852 41.3345 27.7808 41.5567 27.7808H49.4031C49.8293 27.7808 50.1744 27.4357 50.1744 27.0094V26.7523H52.4886C52.9148 26.7523 53.26 26.4072 53.26 25.9809V-7.754C53.26 -8.17987 52.9144 -8.52538 52.4886 -8.52538ZM43.7463 8.42845C43.3208 8.42845 42.9749 8.08253 42.9749 7.65707C42.9749 7.23161 43.3208 6.88569 43.7463 6.88569H48.6317V8.42845H43.7463ZM41.5989 -12.3308L44.9809 1.43503C45.0673 1.78697 45.3827 2.0224 45.7294 2.0224C45.7901 2.0224 45.8523 2.01517 45.9138 1.9999C46.3276 1.89826 46.5807 1.48043 46.4791 1.06702L43.1875 -12.3308H45.4044L46.0632 -4.70465C46.0982 -4.30289 46.4349 -3.99997 46.831 -3.99997C46.8531 -3.99997 46.8756 -4.00077 46.8981 -4.00278C47.3228 -4.03934 47.6369 -4.41298 47.6004 -4.83764L46.9527 -12.3308H48.6317V5.34294H44.4438L40.1019 -12.3308H41.5989ZM6.9078 -12.3308L6.26017 -4.83764C6.22361 -4.41338 6.53778 -4.03934 6.96244 -4.00278C6.98494 -4.00077 7.00744 -3.99997 7.02954 -3.99997C7.42567 -3.99997 7.76234 -4.3033 7.7973 -4.70505L8.45618 -12.3308H10.6731L7.38148 1.06702C7.27983 1.48043 7.53294 1.89826 7.94675 1.9999C8.00862 2.01517 8.07049 2.0224 8.13116 2.0224C8.47788 2.0224 8.79326 1.78697 8.87964 1.43503L12.2616 -12.3308H13.7586L9.41679 5.34294H5.22885V-12.3308H6.9078ZM10.1142 8.42845H5.22885V6.88569H10.1142C10.5397 6.88569 10.8856 7.23161 10.8856 7.65707C10.8856 8.08253 10.5397 8.42845 10.1142 8.42845ZM5.22885 26.238V9.9712H9.27537L11.424 26.238H5.22885ZM10.8173 9.86152C11.7506 9.56342 12.4284 8.68798 12.4284 7.65707C12.4284 6.6816 11.8213 5.84554 10.9656 5.50565L15.3476 -12.3308H26.1589V22.124H12.4368L10.8173 9.86152ZM27.7017 22.124V-12.3308H38.513L42.895 5.50565C42.0392 5.84554 41.4322 6.6816 41.4322 7.65707C41.4322 8.68798 42.1099 9.56342 43.0432 9.86152L41.4237 22.124H27.7017ZM48.6317 26.238H42.4366L44.5852 9.9712H48.6317V26.238Z" fill="$main"/>
<path d="M52.4886 -16.9595H1.37196C0.946099 -16.9595 0.600586 -16.614 0.600586 -16.1882V18.5752C0.600586 19.0015 0.946099 19.3466 1.37196 19.3466C1.79783 19.3466 2.14334 19.0015 2.14334 18.5752V-15.4168H51.7172V-11.0456C51.7172 -10.6194 52.0627 -10.2743 52.4886 -10.2743C52.9144 -10.2743 53.26 -10.6194 53.26 -11.0456V-16.1882C53.26 -16.614 52.9144 -16.9595 52.4886 -16.9595Z" fill="$main"/>
<path d="M15.815 10.1953C15.5438 9.97448 15.1483 10.0188 14.9309 10.294L12.5159 13.3535C12.1836 13.7747 12.4853 14.3926 13.006 14.3926C13.1905 14.3926 13.373 14.3105 13.4971 14.1532L15.9121 11.0937C16.1294 10.8182 16.0861 10.4162 15.815 10.1953Z" fill="$main"/>
<path d="M21.7941 7.09408C21.523 6.87322 21.1274 6.91759 20.9101 7.19275L18.4951 10.2523C18.1627 10.6735 18.4645 11.2913 18.9852 11.2913C19.1696 11.2913 19.3521 11.2092 19.4763 11.0519L21.8912 7.9924C22.1086 7.71724 22.0652 7.31493 21.7941 7.09408Z" fill="$main"/>
<path d="M19.9572 2.795C19.6861 2.57415 19.2905 2.61852 19.0731 2.89368L17.8655 4.42344C17.6481 4.69893 17.6918 5.10091 17.9626 5.32176C18.2353 5.54394 18.6309 5.49659 18.847 5.22309L20.0543 3.69333C20.2717 3.41817 20.228 3.01586 19.9572 2.795Z" fill="$main"/>
</g>
<defs>
<clipPath id="clip0">
<rect width="30" height="30" fill="white" transform="translate(0.600586)"/>
</clipPath>
</defs>
</svg>
