<svg width="50" height="50" viewBox="0 0 50 50" fill="none" xmlns="http://www.w3.org/2000/svg">
<g clip-path="url(#clip0)">
<path d="M50 11.4906C50 7.73926 46.9482 4.6875 43.1969 4.6875C39.4459 4.6875 36.3941 7.73926 36.3941 11.4906V15.324H1.98555C0.890732 15.324 0 16.2148 0 17.3096L0.130463 44.0598C0.378037 44.8277 1.20125 45.3453 1.98555 45.3453H43.1969C46.9482 45.3453 50 42.2935 50 38.5426V11.4906ZM36.3941 30.0323L28.8925 34.0469C27.7901 34.6367 28.6861 36.4101 29.8298 35.7975L36.3941 32.2845V36.3804L23.3696 43.3598H15.7307L22.8905 39.5233C24.0143 38.921 23.0778 37.17 21.9524 37.7728L11.5265 43.3598L3.91769 43.3594L36.3941 25.9567V30.0323ZM17.4629 17.3096H24.9638L33.115 25.4608L28.2314 28.0777L17.4629 17.3096ZM10.8307 24.9126L1.98555 29.5864V25.6088L8.22792 22.3099L10.8307 24.9126ZM1.98555 31.8325L12.3001 26.3821L14.8746 28.9562L1.98555 35.767V31.8325ZM16.3441 30.4256L18.9629 33.0444L1.98555 42.1417V38.0131L16.3441 30.4256ZM36.3941 23.7038L34.9434 24.4812L27.7718 17.3096H36.3941V23.7038ZM26.4027 29.0577L20.7912 32.0648L6.03638 17.3096H14.6545L26.4027 29.0577ZM1.98555 17.3096H3.228L6.75888 20.8405L1.98555 23.3627V17.3096ZM27.5738 43.3598L36.3964 38.6322C36.4204 40.4766 37.1811 42.1467 38.3984 43.3598H27.5738ZM43.1969 43.3598C40.5407 43.3598 38.3797 41.1987 38.3797 38.5426C38.3797 35.8864 40.5407 33.7254 43.1969 33.7254C45.8534 33.7254 48.0145 35.8864 48.0145 38.5426C48.0145 41.1987 45.8534 43.3598 43.1969 43.3598ZM43.1969 31.7394C41.3166 31.7394 39.6126 32.5066 38.3797 33.744V29.8347C38.3797 27.2152 40.5773 25.0175 43.1969 25.0175C45.8164 25.0175 48.0145 27.2152 48.0145 29.8347V33.744C46.7815 32.5066 45.0775 31.7394 43.1969 31.7394ZM47.8981 24.9245C45.2595 22.3972 40.9595 22.4464 38.3801 25.0359V24.3061C38.3801 24.3034 38.3801 24.3011 38.3801 24.2985V20.6821C38.3801 18.0626 40.5777 15.8649 43.1973 15.8649C45.8168 15.8649 48.0145 18.0626 48.0145 20.6821V25.0359C47.9755 24.9989 47.9366 24.9615 47.8981 24.9245ZM47.8996 15.7734C45.261 13.245 40.9607 13.2931 38.3797 15.8829V11.4906C38.3797 8.83446 40.5407 6.67343 43.1969 6.67343C45.8534 6.67343 48.0145 8.83446 48.0145 11.4906V15.8829C47.9763 15.8466 47.9378 15.81 47.8996 15.7734C47.9362 15.8085 47.8577 15.733 47.8996 15.7734Z" fill="#A2AE8B"/>
<path d="M50 11.4906C50 7.73926 46.9482 4.6875 43.1969 4.6875C39.4459 4.6875 36.3941 7.73926 36.3941 11.4906V15.324H1.98555C0.890732 15.324 0 16.2148 0 17.3096L0.130463 44.0598C0.378037 44.8277 1.20125 45.3453 1.98555 45.3453H43.1969C46.9482 45.3453 50 42.2935 50 38.5426V11.4906ZM36.3941 30.0323L28.8925 34.0469C27.7901 34.6367 28.6861 36.4101 29.8298 35.7975L36.3941 32.2845V36.3804L23.3696 43.3598H15.7307L22.8905 39.5233C24.0143 38.921 23.0778 37.17 21.9524 37.7728L11.5265 43.3598L3.91769 43.3594L36.3941 25.9567V30.0323ZM17.4629 17.3096H24.9638L33.115 25.4608L28.2314 28.0777L17.4629 17.3096ZM10.8307 24.9126L1.98555 29.5864V25.6088L8.22792 22.3099L10.8307 24.9126ZM1.98555 31.8325L12.3001 26.3821L14.8746 28.9562L1.98555 35.767V31.8325ZM16.3441 30.4256L18.9629 33.0444L1.98555 42.1417V38.0131L16.3441 30.4256ZM36.3941 23.7038L34.9434 24.4812L27.7718 17.3096H36.3941V23.7038ZM26.4027 29.0577L20.7912 32.0648L6.03638 17.3096H14.6545L26.4027 29.0577ZM1.98555 17.3096H3.228L6.75888 20.8405L1.98555 23.3627V17.3096ZM27.5738 43.3598L36.3964 38.6322C36.4204 40.4766 37.1811 42.1467 38.3984 43.3598H27.5738ZM43.1969 43.3598C40.5407 43.3598 38.3797 41.1987 38.3797 38.5426C38.3797 35.8864 40.5407 33.7254 43.1969 33.7254C45.8534 33.7254 48.0145 35.8864 48.0145 38.5426C48.0145 41.1987 45.8534 43.3598 43.1969 43.3598ZM43.1969 31.7394C41.3166 31.7394 39.6126 32.5066 38.3797 33.744V29.8347C38.3797 27.2152 40.5773 25.0175 43.1969 25.0175C45.8164 25.0175 48.0145 27.2152 48.0145 29.8347V33.744C46.7815 32.5066 45.0775 31.7394 43.1969 31.7394ZM47.8981 24.9245C45.2595 22.3972 40.9595 22.4464 38.3801 25.0359V24.3061C38.3801 24.3034 38.3801 24.3011 38.3801 24.2985V20.6821C38.3801 18.0626 40.5777 15.8649 43.1973 15.8649C45.8168 15.8649 48.0145 18.0626 48.0145 20.6821V25.0359C47.9755 24.9989 47.9366 24.9615 47.8981 24.9245ZM47.8996 15.7734C45.261 13.245 40.9607 13.2931 38.3797 15.8829V11.4906C38.3797 8.83446 40.5407 6.67343 43.1969 6.67343C45.8534 6.67343 48.0145 8.83446 48.0145 11.4906V15.8829C47.9763 15.8466 47.9378 15.81 47.8996 15.7734C47.8577 15.733 47.9362 15.8085 47.8996 15.7734V15.7734Z" stroke="white"/>
<path d="M43.1969 35.302C41.4101 35.302 39.9563 36.7558 39.9563 38.5426C39.9563 40.3294 41.4101 41.7831 43.1969 41.7831C44.9841 41.7831 46.4379 40.3294 46.4379 38.5426C46.4379 36.7558 44.9841 35.302 43.1969 35.302ZM43.1969 39.7976C42.5053 39.7976 41.9422 39.2345 41.9422 38.5426C41.9422 37.8506 42.5053 37.2879 43.1969 37.2879C43.8889 37.2879 44.4519 37.8506 44.4519 38.5426C44.4519 39.2345 43.8889 39.7976 43.1969 39.7976Z" fill="#676565" stroke="white"/>
<path d="M25.8697 35.7185C25.3299 35.7185 24.8767 36.1721 24.8767 36.7115C24.8767 37.2513 25.3303 37.7041 25.8697 37.7045C26.3938 37.7045 26.8375 37.2776 26.8604 36.755C26.8848 36.1996 26.4266 35.7185 25.8697 35.7185Z" fill="#676565" stroke="white"/>
</g>
<defs>
<clipPath id="clip0">
<rect width="50" height="50" fill="white"/>
</clipPath>
</defs>
</svg>
