<svg width="55" height="55" viewBox="0 0 55 55" fill="none" xmlns="http://www.w3.org/2000/svg">
<path d="M35.2984 26.6912C33.9199 26.6912 32.3742 26.2656 30.6726 25.4148C30.4665 25.3112 30.3075 25.1317 30.2296 24.9148C30.1603 24.7204 28.5587 20.1137 31.1039 16.7069C32.9537 14.2304 36.4317 13.115 41.4473 13.3945C41.9047 13.4196 42.2693 13.7863 42.2919 14.2448C42.3098 14.6007 42.6796 23.0014 38.3959 25.7984C37.4851 26.3938 36.4502 26.6912 35.2984 26.6912ZM31.8157 23.9763C34.1702 25.0804 36.0523 25.1886 37.4164 24.2979C39.9564 22.6388 40.5057 17.7141 40.519 15.151C36.5892 15.0551 33.9137 15.9407 32.5399 17.7792C30.905 19.9685 31.5404 22.9799 31.8157 23.9763Z" fill="$main"/>
<path d="M21.7975 15.1724C20.1372 15.1724 18.222 14.8253 16.5505 13.6307C13.7155 11.6034 12.4126 7.74382 12.6772 2.15958C12.6997 1.69275 13.079 1.3174 13.5574 1.28969C13.9624 1.26721 23.5488 0.767969 26.7744 5.49277C28.2766 7.69206 28.1534 10.5725 26.4096 14.0558C26.3035 14.2675 26.1181 14.4311 25.8915 14.5121C25.7656 14.5576 24.0079 15.1724 21.7975 15.1724ZM25.5685 13.6548H25.5776H25.5685ZM14.5201 3.0875C14.4392 7.56033 15.493 10.6091 17.6568 12.1565C20.2476 14.0087 23.785 13.2214 24.8972 12.9051C26.1695 10.2108 26.2772 8.05957 25.2165 6.5059C23.245 3.61811 17.4634 3.05352 14.5201 3.0875Z" fill="$main"/>
<path d="M28.591 37.9003C28.5628 37.9003 28.5346 37.8988 28.5059 37.8962C28.0284 37.8511 27.671 37.4382 27.6951 36.9587C27.7479 35.9043 27.8382 34.9043 27.9607 33.9566C28.3335 27.6139 28.1412 12.8433 18.8025 8.75702C18.3492 8.55856 18.142 8.03034 18.3405 7.57648C18.5384 7.12365 19.0682 6.91698 19.521 7.11493C25.0242 9.52268 28.4864 15.5172 29.531 24.4502C29.6249 25.2508 29.6951 26.04 29.7474 26.8087C32.207 20.5937 35.9696 18.3978 36.1937 18.2721C36.6245 18.0285 37.1712 18.1834 37.4143 18.6137C37.6558 19.0445 37.504 19.5896 37.0748 19.8327C36.9799 19.8881 31.21 23.3507 29.7618 34.0289C29.6515 35.8556 29.4926 37.0203 29.4777 37.1269C29.4156 37.5741 29.0336 37.9003 28.591 37.9003Z" fill="#A2AE8B"/>
<path d="M27.3166 53.7868C25.4006 53.7868 23.4857 53.4006 21.7123 52.6293L13.2326 48.9431C10.1649 47.6087 6.92119 46.7635 3.59188 46.4307L0.807199 46.1522C0.348726 46.1066 0 45.7209 0 45.2604V36.5253C0 36.3315 0.0630785 36.1427 0.179492 35.9879C0.387702 35.7094 5.37859 29.1892 13.0024 30.8857C17.2902 31.8385 20.7426 33.6217 22.8836 34.9499C24.438 35.914 26.2601 36.4233 28.153 36.4233H36.6327C38.0943 36.4233 39.3789 37.1966 40.0974 38.3566L47.4006 29.9426C48.8166 28.0518 51.133 26.8938 53.5582 26.8938H54.1039C54.407 26.8938 54.689 27.0466 54.8541 27.3C55.0198 27.5533 55.0459 27.8738 54.9244 28.1508L48.3191 43.1624C46.875 46.4456 43.9344 48.9256 40.4538 49.7959L39.2917 50.0862L32.5316 52.7903C30.8679 53.4555 29.092 53.7868 27.3166 53.7868ZM1.79286 44.4491L3.77035 44.6471C7.28479 44.9983 10.709 45.8912 13.948 47.2994L22.4272 50.9857C25.4088 52.2821 28.8474 52.3329 31.8664 51.1252L38.682 48.3989C38.7199 48.3841 38.7584 48.3718 38.7979 48.362L40.0189 48.0564C42.9662 47.3194 45.456 45.2199 46.6781 42.4403L52.7028 28.7482C51.1602 28.9754 49.7407 29.8067 48.795 31.0672L40.7046 40.3916C40.7056 40.4264 40.7061 40.4608 40.7061 40.4962C40.7061 42.7419 38.8789 44.5691 36.6332 44.5691H24.8021C23.2642 44.5691 21.7441 44.8158 20.2851 45.3019L19.9559 44.466L19.6774 43.6142L19.723 43.5993C21.3605 43.0537 23.0708 42.7762 24.8021 42.7762H36.6332C37.8901 42.7762 38.9138 41.7531 38.9138 40.4957C38.9138 39.2382 37.8907 38.2151 36.6332 38.2151H28.1535C25.9263 38.2151 23.7775 37.6125 21.9395 36.4725C19.9169 35.2176 16.6563 33.534 12.6147 32.635C6.84119 31.3544 2.68673 35.7853 1.79338 36.8422V44.4491H1.79286Z" fill="#A2AE8B"/>
</svg>
