<svg width="30" height="29" viewBox="0 0 30 29" fill="none" xmlns="http://www.w3.org/2000/svg">
<path fill-rule="evenodd" clip-rule="evenodd" d="M14.7369 0.286133C6.83054 0.286133 0.421143 6.69553 0.421143 14.6019C0.421143 22.5083 6.83054 28.9177 14.7369 28.9177C22.6433 28.9177 29.0527 22.5083 29.0527 14.6019C29.0527 6.69553 22.6433 0.286133 14.7369 0.286133ZM11.5894 7.01292C12.4038 6.97586 12.664 6.9668 14.7376 6.9668H14.7352C16.8094 6.9668 17.0687 6.97586 17.8831 7.01292C18.696 7.05015 19.2511 7.17883 19.7378 7.36764C20.2405 7.5625 20.6652 7.82337 21.0899 8.24807C21.5146 8.67246 21.7755 9.09844 21.9711 9.60061C22.1588 10.0861 22.2877 10.6409 22.3259 11.4537C22.3624 12.2681 22.372 12.5284 22.372 14.602C22.372 16.6755 22.3624 16.9351 22.3259 17.7496C22.2877 18.5621 22.1588 19.1171 21.9711 19.6027C21.7755 20.1047 21.5146 20.5307 21.0899 20.9551C20.6657 21.3798 20.2403 21.6413 19.7383 21.8363C19.2525 22.0251 18.6971 22.1538 17.8843 22.191C17.0698 22.2281 16.8104 22.2371 14.7367 22.2371C12.6632 22.2371 12.4032 22.2281 11.5887 22.191C10.7761 22.1538 10.2211 22.0251 9.7353 21.8363C9.23345 21.6413 8.80747 21.3798 8.38324 20.9551C7.95869 20.5307 7.69783 20.1047 7.50265 19.6025C7.314 19.1171 7.18532 18.5622 7.14794 17.7494C7.11103 16.935 7.10181 16.6755 7.10181 14.602C7.10181 12.5284 7.11135 12.268 7.14778 11.4536C7.18436 10.6411 7.31321 10.0861 7.50249 9.60045C7.69814 9.09844 7.95901 8.67246 8.38372 8.24807C8.80811 7.82352 9.23409 7.56266 9.73626 7.36764C10.2217 7.17883 10.7765 7.05015 11.5894 7.01292Z" fill="#A2AE8B"/>
<path fill-rule="evenodd" clip-rule="evenodd" d="M14.0527 8.34248C14.1857 8.34228 14.3288 8.34234 14.4832 8.34241L14.7376 8.34248C16.7762 8.34248 17.0179 8.3498 17.8229 8.38639C18.5673 8.42043 18.9713 8.54482 19.2405 8.64932C19.5968 8.78771 19.8508 8.95314 20.1179 9.22037C20.3851 9.4876 20.5505 9.74211 20.6893 10.0984C20.7938 10.3672 20.9183 10.7713 20.9522 11.5157C20.9888 12.3206 20.9967 12.5623 20.9967 14.6C20.9967 16.6376 20.9888 16.8794 20.9522 17.6843C20.9181 18.4287 20.7938 18.8327 20.6893 19.1015C20.5509 19.4579 20.3851 19.7116 20.1179 19.9786C19.8507 20.2459 19.5969 20.4113 19.2405 20.5497C18.9717 20.6547 18.5673 20.7787 17.8229 20.8128C17.018 20.8494 16.7762 20.8573 14.7376 20.8573C12.6989 20.8573 12.4573 20.8494 11.6524 20.8128C10.908 20.7784 10.5039 20.654 10.2346 20.5495C9.87833 20.4111 9.62383 20.2457 9.3566 19.9785C9.08937 19.7113 8.92394 19.4574 8.78523 19.1009C8.68073 18.8321 8.55618 18.4281 8.5223 17.6836C8.48571 16.8788 8.47839 16.637 8.47839 14.5981C8.47839 12.5592 8.48571 12.3187 8.5223 11.5138C8.55634 10.7694 8.68073 10.3653 8.78523 10.0962C8.92362 9.73988 9.08937 9.48537 9.3566 9.21814C9.62383 8.95091 9.87833 8.78548 10.2346 8.64678C10.5038 8.54179 10.908 8.41772 11.6524 8.38353C12.3567 8.35171 12.6297 8.34217 14.0527 8.34058V8.34248ZM18.8132 9.61018C18.3074 9.61018 17.897 10.0201 17.897 10.5261C17.897 11.0319 18.3074 11.4423 18.8132 11.4423C19.319 11.4423 19.7294 11.0319 19.7294 10.5261C19.7294 10.0203 19.319 9.60986 18.8132 9.60986V9.61018ZM10.8167 14.6016C10.8167 12.4363 12.5722 10.6807 14.7375 10.6807C16.9028 10.6807 18.658 12.4363 18.658 14.6016C18.658 16.767 16.903 18.5218 14.7376 18.5218C12.5723 18.5218 10.8167 16.767 10.8167 14.6016Z" fill="#A2AE8B"/>
<path fill-rule="evenodd" clip-rule="evenodd" d="M14.7376 12.0564C16.1431 12.0564 17.2826 13.1958 17.2826 14.6015C17.2826 16.007 16.1431 17.1465 14.7376 17.1465C13.3319 17.1465 12.1925 16.007 12.1925 14.6015C12.1925 13.1958 13.3319 12.0564 14.7376 12.0564V12.0564Z" fill="#A2AE8B"/>
</svg>
