<svg width="27" height="27" viewBox="0 0 27 27" fill="none" xmlns="http://www.w3.org/2000/svg">
<g clip-path="url(#clip0)">
<path d="M44.0005 -16.5555C42.5243 -16.5555 4.08087 -16.5555 1.48613 -16.5555C1.13021 -16.5555 0.841125 -16.2675 0.841125 -15.9105V26.3425C0.841125 26.6994 1.13021 26.9875 1.48613 26.9875H37.6086C37.9645 26.9875 38.2536 26.6994 38.2536 26.3425C38.2536 25.9862 37.9645 25.6971 37.6086 25.6971H2.13114V13.3872H3.36033V21.1691C3.36033 21.5253 3.64908 21.8141 4.00534 21.8141H14.8197C15.1757 21.8141 15.4648 21.5253 15.4648 21.1691C15.4648 20.8131 15.1757 20.524 14.8197 20.524H4.65035V13.3872H5.89424V15.622C5.89424 15.9782 6.18299 16.267 6.53925 16.267C6.89551 16.267 7.18426 15.9782 7.18426 15.622V13.3872H20.3351V20.524H17.3998C17.0439 20.524 16.7548 20.8131 16.7548 21.1691C16.7548 21.5253 17.0439 21.8141 17.3998 21.8141H41.4813C41.8375 21.8141 42.1263 21.5253 42.1263 21.1691V13.3872H43.3555V25.6971H40.1886C39.8327 25.6971 39.5436 25.9862 39.5436 26.3425C39.5436 26.6994 39.8327 26.9875 40.1886 26.9875H44.0005C44.3564 26.9875 44.6455 26.6994 44.6455 26.3425C44.6455 21.7342 44.6455 -11.0877 44.6455 -15.9105C44.6455 -16.2675 44.3564 -16.5555 44.0005 -16.5555ZM5.89424 12.0972C4.72086 12.0972 3.32257 12.0972 2.13114 12.0972C2.13114 11.28 2.13114 10.7062 2.13114 9.80589H5.89424V12.0972ZM5.89424 8.51587H2.13114V6.22392H5.89424V8.51587ZM5.89424 4.93391H2.13114V2.64263H5.89424V4.93391ZM5.89424 1.35261H2.13114V-0.939339H5.89424V1.35261ZM5.89424 -2.22969H2.13114V-4.52063H5.89424V-2.22969ZM5.89424 -5.81098C5.06409 -5.81098 2.99238 -5.81098 2.13114 -5.81098V-8.10293H5.89424V-5.81098ZM5.89424 -9.39295H2.13114V-11.6842H5.89424V-9.39295ZM5.89424 -12.9742H2.13114V-15.2655H5.89424V-12.9742ZM7.18426 -15.2655H38.3024V-12.9742H7.18426V-15.2655ZM7.18426 -8.10293H31.9355C32.2918 -8.10293 32.5805 -8.39102 32.5805 -8.74794C32.5805 -9.10387 32.2918 -9.39295 31.9355 -9.39295C31.8299 -9.39295 7.72834 -9.39295 7.18426 -9.39295V-11.6842H38.3024V-9.39295H34.5159C34.1596 -9.39295 33.8709 -9.10387 33.8709 -8.74794C33.8709 -8.39102 34.1596 -8.10293 34.5159 -8.10293H38.3024V-5.81098C37.3078 -5.81098 7.97364 -5.81098 7.18426 -5.81098V-8.10293ZM7.18426 -4.52063H38.3024V-2.22969H7.18426V-4.52063ZM7.18426 -0.939339H38.3024V1.35261H7.18426V-0.939339ZM7.18426 2.64263H38.3024V4.93391H7.18426V2.64263ZM7.18426 6.22392H38.3024V8.51587H7.18426V6.22392ZM7.18426 12.0972V9.80589H38.3024V12.0972C35.2551 12.0972 10.3298 12.0972 7.18426 12.0972ZM40.8363 20.524H25.1516V17.0447C25.1516 16.6884 24.8628 16.3997 24.5066 16.3997C24.1503 16.3997 23.8615 16.6884 23.8615 17.0447V20.524H21.6251V13.3875H23.8615V14.4643C23.8615 14.8209 24.1503 15.1093 24.5066 15.1093C24.8628 15.1093 25.1516 14.8209 25.1516 14.4643V13.3872H38.3024V15.622C38.3024 15.9782 38.5911 16.267 38.9474 16.267C39.3036 16.267 39.5924 15.9782 39.5924 15.622V13.3872H40.8363V20.524ZM43.3555 12.0972C42.1758 12.0972 40.8002 12.0972 39.5924 12.0972V9.80589H43.3555V12.0972ZM43.3555 8.51587H39.5924V6.22392H43.3555V8.51587ZM43.3555 4.93391H39.5924V2.64263H43.3555V4.93391ZM43.3555 1.35261H39.5924V-0.939339H43.3555V1.35261ZM43.3555 -2.22969H39.5924V-4.52063H43.3555V-2.22969ZM43.3555 -5.81098H39.5924V-8.10293H43.3555V-5.81098ZM43.3555 -9.39295H39.5924V-11.6842H43.3555V-9.39295ZM43.3555 -12.9742H39.5924V-15.2655H43.3555V-12.9742Z" fill="#393939"/>
</g>
<defs>
<clipPath id="clip0">
<rect width="27" height="27" fill="white"/>
</clipPath>
</defs>
</svg>
