<svg width="64" height="34" viewBox="0 0 64 34" fill="none" xmlns="http://www.w3.org/2000/svg">
<path d="M47 1C42.7581 1.00503 38.6913 2.69235 35.6918 5.69184C32.6924 8.69134 31.005 12.7581 31 17V24H3V21C3 20.7348 2.89464 20.4804 2.70711 20.2929C2.51957 20.1054 2.26522 20 2 20C1.73478 20 1.48043 20.1054 1.29289 20.2929C1.10536 20.4804 1 20.7348 1 21V32C1 32.2652 1.10536 32.5196 1.29289 32.7071C1.48043 32.8946 1.73478 33 2 33H47C51.2435 33 55.3131 31.3143 58.3137 28.3137C61.3143 25.3131 63 21.2435 63 17C63 12.7565 61.3143 8.68687 58.3137 5.68629C55.3131 2.68571 51.2435 1 47 1ZM3 26H6V28C6 28.2652 6.10536 28.5196 6.29289 28.7071C6.48043 28.8946 6.73478 29 7 29C7.26522 29 7.51957 28.8946 7.70711 28.7071C7.89464 28.5196 8 28.2652 8 28V26H11V27C11 27.2652 11.1054 27.5196 11.2929 27.7071C11.4804 27.8946 11.7348 28 12 28C12.2652 28 12.5196 27.8946 12.7071 27.7071C12.8946 27.5196 13 27.2652 13 27V26H16V28C16 28.2652 16.1054 28.5196 16.2929 28.7071C16.4804 28.8946 16.7348 29 17 29C17.2652 29 17.5196 28.8946 17.7071 28.7071C17.8946 28.5196 18 28.2652 18 28V26H21V27C21 27.2652 21.1054 27.5196 21.2929 27.7071C21.4804 27.8946 21.7348 28 22 28C22.2652 28 22.5196 27.8946 22.7071 27.7071C22.8946 27.5196 23 27.2652 23 27V26H26V28C26 28.2652 26.1054 28.5196 26.2929 28.7071C26.4804 28.8946 26.7348 29 27 29C27.2652 29 27.5196 28.8946 27.7071 28.7071C27.8946 28.5196 28 28.2652 28 28V26H31V31H3V26ZM47 31H33V17C33 14.2311 33.8211 11.5243 35.3594 9.22202C36.8978 6.91973 39.0843 5.12531 41.6424 4.06569C44.2006 3.00606 47.0155 2.72881 49.7313 3.26901C52.447 3.8092 54.9416 5.14257 56.8995 7.10051C58.8574 9.05844 60.1908 11.553 60.731 14.2687C61.2712 16.9845 60.9939 19.7994 59.9343 22.3576C58.8747 24.9157 57.0803 27.1022 54.778 28.6406C52.4757 30.1789 49.7689 31 47 31Z" fill="#A2AE8B" stroke="white"/>
<path d="M47 9C45.4178 9 43.871 9.46919 42.5554 10.3482C41.2399 11.2273 40.2145 12.4767 39.609 13.9385C39.0035 15.4003 38.845 17.0089 39.1537 18.5607C39.4624 20.1126 40.2243 21.538 41.3432 22.6568C42.462 23.7757 43.8874 24.5376 45.4393 24.8463C46.9911 25.155 48.5997 24.9965 50.0615 24.391C51.5233 23.7855 52.7727 22.7601 53.6518 21.4446C54.5308 20.129 55 18.5822 55 17C54.9976 14.879 54.154 12.8455 52.6542 11.3458C51.1545 9.846 49.121 9.00238 47 9ZM47 23C45.8133 23 44.6533 22.6481 43.6666 21.9888C42.6799 21.3295 41.9109 20.3924 41.4567 19.2961C41.0026 18.1997 40.8838 16.9933 41.1153 15.8295C41.3468 14.6656 41.9182 13.5965 42.7574 12.7574C43.5965 11.9182 44.6656 11.3468 45.8295 11.1153C46.9933 10.8838 48.1997 11.0026 49.2961 11.4567C50.3925 11.9108 51.3295 12.6799 51.9888 13.6666C52.6481 14.6533 53 15.8133 53 17C52.9984 18.5908 52.3658 20.116 51.2409 21.2409C50.116 22.3658 48.5908 22.9984 47 23Z" fill="#676565" stroke="white"/>
<path d="M46 27H40C39.7348 27 39.4804 27.1054 39.2929 27.2929C39.1054 27.4804 39 27.7348 39 28C39 28.2652 39.1054 28.5196 39.2929 28.7071C39.4804 28.8946 39.7348 29 40 29H46C46.2652 29 46.5196 28.8946 46.7071 28.7071C46.8946 28.5196 47 28.2652 47 28C47 27.7348 46.8946 27.4804 46.7071 27.2929C46.5196 27.1054 46.2652 27 46 27Z" fill="#676565" stroke="white"/>
<path d="M37 27H36C35.7348 27 35.4804 27.1054 35.2929 27.2929C35.1054 27.4804 35 27.7348 35 28C35 28.2652 35.1054 28.5196 35.2929 28.7071C35.4804 28.8946 35.7348 29 36 29H37C37.2652 29 37.5196 28.8946 37.7071 28.7071C37.8946 28.5196 38 28.2652 38 28C38 27.7348 37.8946 27.4804 37.7071 27.2929C37.5196 27.1054 37.2652 27 37 27Z" fill="#676565" stroke="white"/>
</svg>
