<svg width="30" height="29" viewBox="0 0 30 29" fill="none" xmlns="http://www.w3.org/2000/svg">
<path fill-rule="evenodd" clip-rule="evenodd" d="M0.947388 14.6019C0.947388 6.69553 7.35678 0.286133 15.2632 0.286133C23.1696 0.286133 29.579 6.69553 29.579 14.6019C29.579 22.5083 23.1696 28.9177 15.2632 28.9177C7.35678 28.9177 0.947388 22.5083 0.947388 14.6019ZM15.2632 14.6017C17.2373 14.6017 18.8421 12.9966 18.8421 11.0233C18.8421 9.04941 17.2373 7.44385 15.2632 7.44385C13.2894 7.44385 11.6842 9.04941 11.6842 11.0233C11.6842 12.9966 13.2894 14.6017 15.2632 14.6017ZM19.1911 16.706C18.4703 17.1476 17.6877 17.4607 16.8762 17.641L19.1048 19.8149C19.5613 20.2593 19.5613 20.981 19.1048 21.4258C18.6487 21.8707 17.9095 21.8707 17.4539 21.4258L15.2628 19.2896L13.0736 21.4258C12.8454 21.648 12.5462 21.7592 12.2471 21.7592C11.9485 21.7592 11.6499 21.648 11.4216 21.4258C10.9655 20.981 10.9655 20.2598 11.4211 19.8149L13.6499 17.641C12.8384 17.4607 12.0558 17.1471 11.335 16.706C10.7895 16.3705 10.6256 15.6677 10.9693 15.1351C11.3121 14.6019 12.0329 14.4414 12.5794 14.7768C14.2114 15.7782 16.3138 15.7784 17.9467 14.7768C18.4932 14.4414 19.2138 14.6019 19.5573 15.1351C19.901 15.6672 19.7366 16.3705 19.1911 16.706Z" fill="#A2AE8B"/>
<path fill-rule="evenodd" clip-rule="evenodd" d="M15.2632 9.2334C16.25 9.2334 17.0527 10.036 17.0527 11.023C17.0527 12.0092 16.25 12.8123 15.2632 12.8123C14.2772 12.8123 13.4738 12.0092 13.4738 11.023C13.4738 10.036 14.2772 9.2334 15.2632 9.2334Z" fill="#A2AE8B"/>
</svg>
