<svg width="36" height="37" viewBox="0 0 36 37" fill="none" xmlns="http://www.w3.org/2000/svg">
<g clip-path="url(#clip0)">
<path d="M34.5379 27.782L27.4537 22.9227C26.5548 22.311 25.3497 22.5123 24.6851 23.3852L22.6215 26.1142C22.3563 26.4739 21.8743 26.5782 21.4906 26.359L21.0981 26.1364C19.7969 25.4069 18.1778 24.4987 14.9157 21.1422C11.6536 17.7857 10.7688 16.1191 10.0596 14.7831L9.84432 14.3794C9.62827 13.9849 9.72778 13.4869 10.0776 13.212L12.729 11.0901C13.5773 10.4064 13.7733 9.16727 13.1793 8.24231L8.45498 0.955783C7.8462 0.0138756 6.6248 -0.268879 5.68233 0.313854L2.72 2.14417C1.78922 2.70701 1.10635 3.61854 0.814564 4.68777C-0.252163 8.68556 0.550325 15.5851 10.4317 25.7501C18.2921 33.8344 24.1439 36.0085 28.1659 36.0085C29.0916 36.0126 30.0136 35.8887 30.9072 35.6402C31.947 35.3405 32.8333 34.638 33.3802 33.6803L35.1614 30.6352C35.7288 29.6656 35.454 28.4085 34.5379 27.782ZM34.1564 30.0196L32.3793 33.0666C31.9866 33.7578 31.3491 34.266 30.6003 34.4848C27.0122 35.4981 20.7435 34.6588 11.257 24.9012C1.77043 15.1437 0.954543 8.69639 1.93966 5.00518C2.15264 4.23411 2.64735 3.57756 3.32018 3.17304L6.2825 1.34512C6.69144 1.09203 7.22155 1.21471 7.48572 1.62344L10.052 5.58644L12.206 8.90934C12.4639 9.31055 12.3792 9.84829 12.0112 10.1452L9.35917 12.267C8.55211 12.9018 8.32163 14.0503 8.81853 14.9619L9.02912 15.3554C9.77453 16.7616 10.7013 18.5109 14.0847 21.9904C17.4681 25.4699 19.1683 26.4232 20.5348 27.1898L20.918 27.407C21.8041 27.918 22.9208 27.681 23.538 26.8509L25.6009 24.1231C25.8896 23.7448 26.4122 23.6577 26.8024 23.9228L33.8859 28.782C34.2835 29.0536 34.4028 29.5991 34.1564 30.0196Z" fill="#A2AE8B"/>
<path d="M20.2885 6.01212C25.762 6.01838 30.1976 10.5808 30.2038 16.2106C30.2038 16.542 30.4649 16.8105 30.787 16.8105C31.1091 16.8105 31.3702 16.542 31.3702 16.2106C31.3635 9.91839 26.406 4.81924 20.2885 4.81235C19.9664 4.81235 19.7053 5.0809 19.7053 5.41224C19.7053 5.74357 19.9664 6.01212 20.2885 6.01212Z" fill="#676565"/>
<path d="M20.2885 9.61158C23.8301 9.61587 26.7001 12.5679 26.7043 16.2106C26.7043 16.542 26.9654 16.8105 27.2875 16.8105C27.6096 16.8105 27.8707 16.542 27.8707 16.2106C27.8659 11.9055 24.474 8.41673 20.2885 8.4118C19.9664 8.4118 19.7053 8.68036 19.7053 9.01169C19.7053 9.34303 19.9664 9.61158 20.2885 9.61158Z" fill="#676565"/>
<path d="M20.2885 13.2111C21.8983 13.213 23.2028 14.5548 23.2048 16.2106C23.2048 16.542 23.466 16.8105 23.788 16.8105C24.1101 16.8105 24.3712 16.542 24.3712 16.2106C24.3686 13.8925 22.5423 12.0139 20.2885 12.0113C19.9664 12.0113 19.7053 12.2798 19.7053 12.6112C19.7053 12.9425 19.9664 13.2111 20.2885 13.2111Z" fill="#676565"/>
</g>
<defs>
<clipPath id="clip0">
<rect width="35" height="36" fill="white" transform="translate(0.456299 0.0090332)"/>
</clipPath>
</defs>
</svg>
