<svg width="42" height="45" viewBox="0 0 42 45" fill="none" xmlns="http://www.w3.org/2000/svg">
<g clip-path="url(#clip0)">
<path d="M36.8294 40.4464C36.4521 40.4464 36.0751 40.2962 35.788 39.9952L35.7418 39.9468C35.4891 39.6821 35.0482 39.6821 34.7955 39.9468C34.2216 40.5485 33.2869 40.5485 32.713 39.9468L32.6497 39.8805C32.1523 39.3595 31.9289 38.6155 32.0521 37.8904C32.0557 37.8689 32.0609 37.8478 32.0678 37.827L32.1804 37.4846H9.82803L9.94072 37.827C9.94755 37.8478 9.95298 37.8689 9.95639 37.8906C10.0793 38.6158 9.85595 39.3597 9.35878 39.8805L9.2955 39.9468C9.01728 40.2383 8.64746 40.3986 8.25414 40.3986C7.86062 40.3986 7.4908 40.2381 7.21259 39.9468C7.18466 39.9178 7.15513 39.8917 7.1242 39.8689C7.09286 39.8546 7.06313 39.8363 7.03621 39.8142C6.78612 39.6848 6.47456 39.729 6.26645 39.9468L6.22024 39.9952C5.64633 40.5969 4.71164 40.5969 4.13773 39.9952L4.08831 39.9434C4.05637 39.9197 4.02765 39.8908 4.00334 39.858C3.74059 39.6257 3.34627 39.6389 3.09878 39.8982L3.01662 39.9843C2.73841 40.2757 2.36859 40.4361 1.97527 40.4361C1.58174 40.4361 1.21193 40.2755 0.933909 39.9843L0.439546 39.4666C0.161328 39.1751 0.00825837 38.7877 0.00825837 38.3754V22.0931C-0.00238822 22.0384 -0.00278998 21.9814 0.00825837 21.9247V21.1301C-0.0025891 21.0741 -0.00218734 21.0179 0.00825837 20.9639V19.2849C-0.0015847 19.2319 -0.00138383 19.1776 0.00825837 19.125V17.6058C-0.00118295 17.5542 -0.00138383 17.5006 0.00825837 17.448V3.99233C0.00825837 3.76 0.188246 3.57144 0.410017 3.57144H5.97376C5.97537 3.57144 5.97698 3.57144 5.97838 3.57144H8.96405C8.96546 3.57165 8.96666 3.57165 8.96827 3.57144H12.0052C12.0068 3.57165 12.008 3.57165 12.0094 3.57144H14.845C14.8462 3.57165 14.8478 3.57165 14.8492 3.57144H24.452C24.4548 3.57144 24.4571 3.57144 24.4599 3.57144H41.5983C41.82 3.57144 42 3.76 42 3.99233V38.3758C42 38.7881 41.8467 39.1755 41.5687 39.467L41.0746 39.9847C40.7964 40.2762 40.4265 40.4365 40.0332 40.4365C39.6397 40.4365 39.2699 40.276 38.9917 39.9847L38.9097 39.8986C38.6488 39.6253 38.2241 39.625 37.9632 39.8986L37.8712 39.9954C37.5839 40.2962 37.2066 40.4464 36.8294 40.4464ZM35.2754 38.8999C35.6663 38.9017 36.0335 39.0621 36.3099 39.3517L36.3561 39.4001C36.6165 39.6728 37.0393 39.6734 37.3005 39.4024L40.6043 22.9149L39.347 23.4848C39.3145 23.5102 39.2781 23.5307 39.2395 23.5448L35.2754 38.8999ZM4.68754 39.3814L4.70561 39.4003C4.96656 39.6737 5.39101 39.6737 5.65196 39.4003L5.69816 39.3519C5.97959 39.0571 6.3474 38.9068 6.71722 38.9009L2.75247 23.5448C2.7141 23.5307 2.67794 23.5104 2.6456 23.4852L1.3877 22.9151L4.68754 39.3814ZM38.4364 38.8512C38.8299 38.8512 39.1998 39.0118 39.478 39.3031L39.5601 39.3891C39.8128 39.6539 40.2538 39.6539 40.5065 39.3891L41.0006 38.8714C41.127 38.7391 41.1967 38.5629 41.1967 38.3756V24.0576L38.2293 38.8662C38.2972 38.8565 38.3663 38.8512 38.4364 38.8512ZM0.811574 24.1367V38.3756C0.811574 38.5631 0.881279 38.7393 1.00763 38.8714L1.502 39.3891C1.7547 39.6539 2.19563 39.6539 2.44834 39.3891L2.5305 39.3031C2.86637 38.9512 3.32497 38.8056 3.76329 38.8649L0.811574 24.1367ZM7.63062 39.2143C7.68304 39.2557 7.73326 39.3018 7.78087 39.3517C8.04141 39.6246 8.46607 39.625 8.72742 39.3517L8.79069 39.2854C9.09543 38.9661 9.23604 38.5131 9.17015 38.0682L4.67789 24.4065L3.69218 23.9597L7.63062 39.2143ZM32.8383 38.0682C32.7722 38.5131 32.9129 38.9661 33.2178 39.2854L33.2811 39.3517C33.542 39.625 33.9665 39.625 34.2274 39.3517C34.2688 39.3083 34.3124 39.2677 34.3576 39.2303L38.3002 23.9597L37.3332 24.3981L32.8383 38.0682ZM9.55122 36.6428H32.4571L36.4783 24.4139C34.9982 24.0797 30.4422 22.6979 27.3365 17.9078C25.2877 14.7477 24.5008 10.8497 24.2078 7.97815C24.041 7.88703 23.89 7.77108 23.7562 7.63071L23.6696 7.54043C23.4693 7.33041 23.2034 7.21487 22.9205 7.21487C22.6375 7.21487 22.3715 7.33041 22.1714 7.54001L22.1132 7.60104C21.7613 7.96974 21.2936 8.17282 20.7958 8.17282C20.2981 8.17282 19.8304 7.96974 19.4785 7.60104L19.4467 7.56779C19.0335 7.1349 18.3616 7.1349 17.9484 7.56779L17.9251 7.59241C17.8943 7.62461 17.8622 7.65575 17.8288 7.68585C17.5599 10.5805 16.7909 14.6392 14.6716 17.9076C11.5658 22.6977 7.0099 24.0795 5.52982 24.4137L9.55122 36.6428ZM4.18534 23.2661L5.04329 23.6552C5.81286 23.5083 10.7983 22.3835 14.0069 17.4347C16.0376 14.3027 16.7702 10.3132 17.0267 7.50066C17.0257 7.48045 17.0261 7.46025 17.0279 7.43984C17.1497 6.06416 17.1571 4.96901 17.1493 4.41322H15.2608C15.2889 6.15676 15.1674 12.5667 12.1203 17.2663C9.58798 21.1726 6.04447 22.704 4.18534 23.2661ZM24.8512 4.41322C24.8303 6.09615 24.9552 12.7369 28.0012 17.4347C31.202 22.3711 36.1476 23.4991 36.9533 23.6531L37.8071 23.2661C35.9477 22.704 32.4042 21.1726 29.8717 17.2663C26.8246 12.5667 26.7035 6.15676 26.7314 4.41322H24.8512ZM27.5373 4.41322C27.5186 6.04648 27.648 12.3384 30.5365 16.7933C33.5593 21.4552 38.2163 22.5485 39.0375 22.708L40.3159 22.1285C38.7227 21.7059 35.0657 20.3483 32.5097 16.4058C29.6757 12.0351 29.5471 6.08436 29.5714 4.41322H27.5373ZM1.67636 22.1287L2.95435 22.708C3.77494 22.5468 8.44016 21.4445 11.4558 16.7935C14.3478 12.3333 14.4748 6.04522 14.4553 4.41322H12.421C12.4453 6.08436 12.3165 12.0353 9.48272 16.4058C6.92653 20.3485 3.26953 21.7061 1.67636 22.1287ZM30.3774 4.41322C30.3617 5.97767 30.4965 11.8028 33.1744 15.9328C36.1583 20.5352 40.8761 21.4094 41.1967 21.4637V21.3258C39.5296 20.5407 37.2759 19.0667 35.551 16.4058C32.7172 12.0351 32.5886 6.08436 32.6129 4.41322H30.3774ZM0.811574 21.3185V21.4609C1.24708 21.3845 5.87533 20.4714 8.81801 15.9328C11.4991 11.7977 11.6315 5.97619 11.6153 4.41322H9.37987C9.40418 6.08436 9.27541 12.0353 6.44161 16.4058C4.72189 19.0581 2.47706 20.5314 0.811574 21.3185ZM33.4187 4.41322C33.403 5.97767 33.5378 11.8028 36.2155 15.9328C37.7255 18.2613 39.669 19.624 41.1967 20.3971V19.4162C40.171 18.5545 39.2779 17.5427 38.5411 16.4058C35.7073 12.0351 35.5785 6.08436 35.6028 4.41322H33.4187ZM0.811574 19.4026V20.3891C2.33665 19.6145 4.27232 18.2535 5.7769 15.9328C8.45804 11.7977 8.59042 5.97619 8.57414 4.41322H6.38958C6.41389 6.08436 6.28533 12.0353 3.45133 16.4058C2.71812 17.5366 1.83083 18.544 0.811574 19.4026ZM36.4086 4.41322C36.3931 5.97767 36.5279 11.8028 39.2056 15.9328C39.7743 16.8101 40.4418 17.6081 41.1965 18.3137V17.6538C40.9749 17.2388 40.7662 16.7964 40.5756 16.337C38.7699 11.9875 38.6893 6.06626 38.705 4.41301L36.4086 4.41322ZM0.811574 17.6245V18.299C1.55965 17.597 2.22195 16.804 2.78662 15.9328C5.46795 11.7977 5.60013 5.9764 5.58386 4.41322H3.28721C3.30288 6.06647 3.22252 11.9878 1.41662 16.3372C1.23061 16.7853 1.02752 17.2177 0.811574 17.6245ZM39.5103 4.41322C39.5005 5.95894 39.5844 11.5827 41.1967 15.7135V4.41322H39.5103ZM0.811574 4.41322V15.6726C2.40836 11.5458 2.49173 5.95389 2.48188 4.41322H0.811574ZM18.6978 6.40213C19.1749 6.40213 19.6516 6.59217 20.0148 6.97265L20.0465 7.0059C20.2466 7.2155 20.5126 7.33104 20.7956 7.33104C21.0787 7.33104 21.3446 7.2155 21.5447 7.0059L21.603 6.94487C21.9549 6.57617 22.4225 6.37309 22.9203 6.37309C23.3596 6.37309 23.7757 6.53135 24.1093 6.82218C24.036 5.74071 24.0314 4.89472 24.0382 4.41322H17.9628C17.9705 4.86231 17.9691 5.62033 17.9126 6.58291C18.1609 6.46232 18.4293 6.40213 18.6978 6.40213Z" fill="#A2AE8B"/>
<path d="M9.78125 36.4778C9.50511 36.4778 9.28125 36.7016 9.28125 36.9778C9.28125 37.2539 9.50511 37.4778 9.78125 37.4778V36.4778ZM32.3125 37.4778C32.5886 37.4778 32.8125 37.2539 32.8125 36.9778C32.8125 36.7016 32.5886 36.4778 32.3125 36.4778V37.4778ZM9.78125 37.4778H32.3125V36.4778H9.78125V37.4778Z" fill="#676565"/>
<path d="M36.5 24.4153L42.0938 21.8215" stroke="#676565" stroke-linecap="round"/>
<path d="M5.59375 24.4153L0 21.8215" stroke="#676565" stroke-linecap="round"/>
</g>
<defs>
<clipPath id="clip0">
<rect width="42" height="44" fill="white" transform="translate(0 0.0090332)"/>
</clipPath>
</defs>
</svg>
