<svg width="22" height="22" viewBox="0 0 22 22" fill="none" xmlns="http://www.w3.org/2000/svg">
<g clip-path="url(#clip0)">
<path d="M21.6695 20.4901L16.5332 15.3538C17.911 13.7698 18.7452 11.7031 18.7452 9.44421C18.7452 4.47193 14.7008 0.432251 9.73321 0.432251C4.76093 0.432251 0.721252 4.47662 0.721252 9.44421C0.721252 14.4118 4.76562 18.4562 9.73321 18.4562C11.9921 18.4562 14.0588 17.622 15.6428 16.2442L20.7791 21.3805C20.9009 21.5023 21.0649 21.5679 21.2243 21.5679C21.3836 21.5679 21.5476 21.507 21.6695 21.3805C21.9132 21.1368 21.9132 20.7338 21.6695 20.4901ZM1.9819 9.44421C1.9819 5.17021 5.45921 1.69758 9.72852 1.69758C14.0025 1.69758 17.4752 5.17489 17.4752 9.44421C17.4752 13.7135 14.0025 17.1955 9.72852 17.1955C5.45921 17.1955 1.9819 13.7182 1.9819 9.44421Z" fill="#2D2D2D"/>
</g>
<defs>
<clipPath id="clip0">
<rect width="21.1357" height="21.1357" fill="white" transform="translate(0.717285 0.432129)"/>
</clipPath>
</defs>
</svg>
