<svg width="27" height="27" viewBox="0 0 27 27" fill="none" xmlns="http://www.w3.org/2000/svg">
<g clip-path="url(#clip0)">
<path d="M19.9453 32.8065L18.5389 28.5866C18.0474 27.1134 16.7935 26.0259 15.2649 25.7476L11.2048 25.0089V24.6942C11.9114 24.2841 12.5262 23.7355 13.0159 23.086H14.2425C15.2473 23.086 16.065 22.2683 16.065 21.2634V13.9731C16.065 9.61831 12.5219 6.0752 8.16715 6.0752C3.81238 6.0752 0.269261 9.61831 0.269261 13.9731V18.2258C0.269261 19.3971 1.10219 20.3771 2.20668 20.6055C2.5475 22.3515 3.63862 23.8291 5.1295 24.6942V25.0089L1.06877 25.7476C-0.459167 26.0259 -1.71372 27.1134 -2.2046 28.5866L-2.44761 29.3163L-4.51686 27.247C-4.7538 27.0101 -4.7538 26.6243 -4.51686 26.3874L-2.11712 23.9882L-6.62134 19.484L-9.33336 22.196C-10.1365 22.9992 -10.5788 24.0672 -10.5788 25.2033C-10.5788 26.3394 -10.1365 27.4068 -9.33336 28.2099L-1.12259 36.4207C-0.319434 37.2239 0.748604 37.6668 1.88468 37.6668C3.02077 37.6668 4.0882 37.2239 4.87252 36.4389L7.8318 33.7275L6.90896 32.8065H19.9453ZM14.85 21.2634C14.85 21.5988 14.5772 21.871 14.2425 21.871H13.7315C13.9077 21.4694 14.0414 21.046 14.1276 20.6055C14.3877 20.5514 14.627 20.4481 14.85 20.3181V21.2634ZM14.2425 19.272V17.1796C14.6039 17.3904 14.85 17.778 14.85 18.2258C14.85 18.6735 14.6039 19.0612 14.2425 19.272ZM2.09185 19.272C1.73037 19.0612 1.48432 18.6735 1.48432 18.2258C1.48432 17.778 1.73037 17.3904 2.09185 17.1796V19.272ZM2.09185 15.1881V15.8819C1.87557 15.9384 1.67266 16.0235 1.48432 16.1335V13.9731C1.48432 10.2884 4.48248 7.29026 8.16715 7.29026C11.8518 7.29026 14.85 10.2884 14.85 13.9731V16.1335C14.6617 16.0235 14.4587 15.9378 14.2425 15.8819V15.1881H13.6349C11.8385 15.1881 10.1495 14.4883 8.87857 13.2179L8.16715 12.5065L7.45574 13.2179C6.18478 14.4883 4.49585 15.1881 2.69938 15.1881H2.09185ZM3.30691 19.4409V16.3801C5.13133 16.2428 6.83241 15.4901 8.16715 14.221C9.5019 15.4901 11.203 16.2434 13.0274 16.3801V19.4409C13.0274 20.3266 12.7856 21.1553 12.3701 21.871H8.16715V23.086H11.3713C10.5147 23.84 9.39497 24.3011 8.16715 24.3011C5.48734 24.3011 3.30691 22.1207 3.30691 19.4409ZM9.98975 25.2361V25.2646L8.16715 27.0872L6.34456 25.2646V25.2361C6.9205 25.4171 7.53229 25.5162 8.16715 25.5162C8.80202 25.5162 9.41381 25.4171 9.98975 25.2361ZM-1.05272 28.9706C-0.702179 27.9183 0.193929 27.1413 1.28566 26.942L5.5323 26.1705L8.16715 28.8053L10.8014 26.1711L15.0474 26.9426C16.1392 27.1419 17.0353 27.9183 17.3858 28.9712L18.2601 31.5915H5.6939L3.32757 29.2251L0.698179 31.6036C0.46914 31.8339 0.068778 31.8339 -0.160869 31.6036L-1.48771 30.2768L-1.05272 28.9706ZM-6.62195 21.2021L-3.83582 23.9882L-4.4956 24.648L-7.28173 21.8619L-6.62195 21.2021ZM4.03109 35.5629C3.45758 36.1352 2.69452 36.4517 1.88347 36.4517C1.07242 36.4517 0.309359 36.1352 -0.264757 35.5617L-8.47553 27.3515C-9.04904 26.778 -9.36495 26.0149 -9.36495 25.2039C-9.36495 24.3922 -9.04904 23.6292 -8.47553 23.0557L-8.14139 22.7215L-5.35525 25.5077L-5.37712 25.5295C-6.08733 26.2403 -6.08733 27.3965 -5.37712 28.1073L-1.02052 32.4639C-0.676055 32.8077 -0.218585 32.9979 0.268655 32.9979C0.755894 32.9979 1.21336 32.8083 1.53536 32.4851L1.58092 32.4444L4.37981 35.2433L4.03109 35.5629ZM5.27653 34.4207L2.48371 31.6279L3.28626 30.9025L6.07421 33.6905L5.27653 34.4207Z" fill="#393939"/>
<path d="M25.1774 0H16.672C15.6672 0 14.8494 0.817736 14.8494 1.82259V6.68283C14.8494 7.68769 15.6672 8.50542 16.672 8.50542H18.2947L17.6665 12.1694L23.5292 8.50542H25.1774C26.1823 8.50542 27 7.68769 27 6.68283V1.82259C27 0.817736 26.1823 0 25.1774 0ZM25.785 6.68283C25.785 7.01758 25.5122 7.29036 25.1774 7.29036H23.1805L19.3221 9.70165L19.7358 7.29036H16.672C16.3373 7.29036 16.0645 7.01758 16.0645 6.68283V1.82259C16.0645 1.48784 16.3373 1.21506 16.672 1.21506H25.1774C25.5122 1.21506 25.785 1.48784 25.785 1.82259V6.68283Z" fill="#393939"/>
<path d="M24.5705 2.43018H17.2801V3.64524H24.5705V2.43018Z" fill="#393939"/>
<path d="M22.1403 4.86035H17.2801V6.07541H22.1403V4.86035Z" fill="#393939"/>
<path d="M24.5699 4.86035H23.3548V6.07541H24.5699V4.86035Z" fill="#393939"/>
</g>
<defs>
<clipPath id="clip0">
<rect width="27" height="27" fill="white"/>
</clipPath>
</defs>
</svg>
