<svg width="55" height="55" viewBox="0 0 55 55" fill="none" xmlns="http://www.w3.org/2000/svg">
<g clip-path="url(#clip0)">
<path d="M26.9582 41.1179C26.5193 41.0268 24.4605 41.3814 22.4986 40.324C22.1066 40.1127 21.618 40.2594 21.4068 40.651C21.1958 41.0428 21.3422 41.5315 21.7338 41.7428C21.901 41.8328 22.0686 41.9146 22.2365 41.9891C20.5925 42.7112 19.2643 44.0146 18.4884 45.9412C17.7522 44.1389 16.4906 42.7686 14.7387 41.9869C16.5254 41.1896 17.7684 39.7953 18.4884 38.033C18.6427 38.4137 18.7834 38.6781 18.7888 38.6891C18.9909 39.0854 19.4765 39.2426 19.8729 39.0405C20.2692 38.8382 20.4265 38.3529 20.2242 37.9564C20.2219 37.9456 19.2464 36.1652 19.3616 33.7956C19.4275 33.3514 19.1162 32.9099 18.6415 32.8226C18.2094 32.7375 17.7308 33.0115 17.6195 33.4968C17.5619 33.7483 17.9787 38.0997 14.8209 40.1185C12.7652 41.43 10.4313 41.0224 9.9965 41.121C9.07729 41.3303 9.07804 42.6438 9.9965 42.853C10.426 42.9498 12.8056 42.5433 14.862 43.8819C17.9157 45.8715 17.5788 50.1073 17.5992 50.297C17.5992 51.2905 19.019 51.5142 19.3323 50.5448C19.4383 50.2147 18.9924 46.0137 22.0077 43.9491C23.9942 42.5879 26.4561 42.9161 26.8845 42.8679C27.8648 42.7578 27.9525 41.3282 26.9582 41.1179Z" fill="#A2AE8B"/>
<path d="M54.3252 23.1322C52.8521 22.9686 42.3515 24.4436 37.7624 14.8083C35.3499 9.74015 35.9686 5.14561 35.8372 4.56919C35.7188 4.05098 35.2288 3.74054 34.7604 3.80037C34.2262 3.86085 33.8718 4.30321 33.8718 4.74858V6.83944C33.5077 14.0273 30.2367 20.146 23.368 22.2997C19.4014 23.544 15.9579 23.0065 15.315 23.1472C14.2839 23.3811 14.2762 24.8619 15.3259 25.0951C16.2248 25.2849 22.9879 24.1891 28.2399 28.5508C28.5823 28.835 29.0903 28.7879 29.3747 28.4457C29.6589 28.1033 29.612 27.5954 29.2696 27.3109C27.4675 25.8143 25.3076 24.7448 22.836 24.1235C29.3429 22.4846 33.3367 17.8399 34.8654 11.3338C36.3814 17.8 40.3422 22.4859 46.919 24.1166C40.4079 25.7459 36.3588 30.3867 34.8561 36.875C34.2966 34.4969 33.3633 32.2208 31.9604 30.233C31.7038 29.8694 31.2011 29.7827 30.8374 30.0392C30.4737 30.2959 30.3871 30.7986 30.6436 31.1622C31.1382 31.8628 31.5833 32.6263 31.967 33.4314C34.2431 38.2134 33.8409 43.0785 33.8739 43.5479C33.9589 44.7467 35.9148 44.8071 35.8536 43.3247C35.7431 40.653 35.9503 31.6019 43.261 27.307C48.1941 24.4117 53.6819 25.2575 54.4144 25.0927C55.5185 24.8421 55.399 23.2528 54.3252 23.1322Z" fill="#A2AE8B"/>
<path d="M17.6502 12.1432C17.1047 12.0301 12.8033 12.7916 10.8817 8.91496C9.97839 7.09631 10.0411 5.0742 10.0535 4.82068C10.1181 4.38187 9.8135 3.93574 9.33257 3.84798C8.9032 3.76301 8.42228 4.03543 8.31109 4.52366C8.25373 4.77396 8.67021 9.12529 5.51275 11.1442C3.5291 12.4096 1.21394 12.0827 0.777596 12.1314C-0.202844 12.2429 -0.282121 13.6575 0.688221 13.8785C1.1568 13.984 3.48602 13.5614 5.55368 14.9074C7.75733 16.343 8.21527 18.9795 8.29101 20.4374C8.30143 21.2705 8.26458 21.3674 8.33 21.5704C8.45042 21.9431 8.79084 22.1933 9.17691 22.1933C9.62014 22.1935 9.97925 21.8657 10.0504 21.4641C10.0996 21.1887 9.8845 19.0935 10.905 17.0657C11.105 16.6681 10.945 16.1838 10.5475 15.9836C10.1499 15.7834 9.66558 15.9437 9.46545 16.3411C9.36361 16.5436 9.26897 16.7536 9.18164 16.9702C8.44591 15.1667 7.18413 13.7954 5.43079 13.0127C7.21732 12.2151 8.4602 10.8211 9.18024 9.05859C9.89986 10.8339 11.1327 12.2219 12.9269 13.0155C12.7511 13.0931 12.5752 13.1788 12.4006 13.2731C12.0091 13.4848 11.8635 13.9737 12.0754 14.3652C12.2871 14.7567 12.7759 14.9022 13.1675 14.6906C15.0693 13.6617 17.1471 13.9416 17.5764 13.8938C18.562 13.7807 18.6368 12.3519 17.6502 12.1432Z" fill="#393939"/>
</g>
<defs>
<clipPath id="clip0">
<rect width="55" height="55" fill="white"/>
</clipPath>
</defs>
</svg>
