<svg width="28" height="28" viewBox="0 0 28 28" fill="none" xmlns="http://www.w3.org/2000/svg">
<g clip-path="url(#clip0)">
<path d="M37.0172 -11.412C31.9012 -11.412 27.6687 -7.29247 27.25 -2.09424H1.07751V39.4119H37.0173C42.4083 39.4119 46.819 34.8377 46.819 29.2471V-1.24721C46.8189 -6.83784 42.4082 -11.412 37.0172 -11.412ZM2.71107 6.00155L12.7446 -0.400079H18.4776L2.71107 9.13794V6.00155ZM27.2154 16.3023L24.2358 15.5299L27.2154 13.7643V16.3023ZM27.2154 11.8131L21.9453 14.9361L17.651 13.8229L27.2155 7.86972V11.8131H27.2154ZM27.2154 5.89404L15.4099 13.242L11.1038 12.1257L27.2154 1.95122V5.89404ZM25.8998 17.7074L21.1489 20.6357L2.71107 15.0588V11.6962L25.8998 17.7074ZM8.56034 28.3947L2.71107 26.1201V21.9261L13.4227 25.3977L8.56034 28.3947ZM2.71107 20.1511V16.8236L19.2283 21.8195L15.1896 24.3088L15.2207 24.2055L2.71107 20.1511ZM2.71107 27.9294L6.76051 29.5041L2.71107 32V27.9294ZM2.71107 33.9707L27.2154 18.8671V22.8377L2.71107 37.5796V33.9707ZM27.2154 24.7963V28.7575L12.2939 37.7177H5.73698L27.2154 24.7963ZM27.2154 -0.0323009L8.87698 11.5484L4.04101 10.2948L21.7199 -0.400178H27.2155V-0.0323009H27.2154ZM9.62705 -0.400178L2.71107 4.01237V-0.400178H9.62705ZM15.554 37.7177L27.3111 30.6579C27.7089 33.5955 29.329 36.1405 31.617 37.7177H15.554ZM37.0172 37.7177C32.5248 37.7177 28.8491 33.9059 28.8491 29.2471C28.8491 24.5883 32.5248 20.7765 37.0172 20.7765C41.5096 20.7765 45.1853 24.5883 45.1853 29.2471C45.1853 33.9059 41.5097 37.7177 37.0172 37.7177ZM37.0172 19.0823C33.6179 19.0823 30.6088 20.9014 28.8491 23.6469V-1.24721C28.8491 -5.90603 32.5248 -9.71782 37.0172 -9.71782C41.5096 -9.71782 45.1853 -5.90603 45.1853 -1.24721V23.6469C43.4256 20.9014 40.4165 19.0823 37.0172 19.0823Z" fill="$main"/>
</g>
<defs>
<clipPath id="clip0">
<rect width="27" height="28" fill="white" transform="translate(0.17749)"/>
</clipPath>
</defs>
</svg>
