<svg width="67" height="17" viewBox="0 0 67 17" fill="none" xmlns="http://www.w3.org/2000/svg">
<g clip-path="url(#clip0)">
<path d="M42.0071 0.865479C41.4015 0.865479 40.7959 0.865479 40.1902 0.865479C39.6981 2.08713 39.3101 3.41215 38.8275 4.63381C39.4048 4.63381 39.9915 4.63381 40.5687 4.63381C41.1365 3.45914 41.4961 2.08713 42.0071 0.865479Z" fill="#989898"/>
<path d="M9.66193 2.93286H0V5.63929H2.97145V10.9958V15.6381H6.29303V10.9958V5.63929H9.27394L9.66193 2.93286Z" fill="#989898"/>
<path d="M36.4523 2.93286H26.7998V5.63929H29.7713V10.9958V15.6381H33.0928V5.63929H36.0643L36.4523 2.93286Z" fill="#989898"/>
<path d="M47.9595 7.13365C47.9406 6.56981 47.8176 6.20331 47.7608 6.02477L44.8272 6.51343C45.0827 7.61291 45.1206 8.47747 45.1206 9.92466V10.996V15.6382H48.3097V10.996V9.20106C48.4516 8.90974 48.7734 8.53385 49.4263 8.53385C49.5872 8.53385 49.9373 8.55265 50.3632 8.78758L51.1013 6.23151C50.6376 6.01537 50.2023 5.95898 49.909 5.95898C49.0194 5.95898 48.4327 6.45704 47.9595 7.13365Z" fill="#989898"/>
<path d="M23.8567 10.648L26.6956 6.23125H22.9577L22.5318 7.03942C22.3331 7.40592 22.106 8.09192 22.0492 8.58998C21.9073 7.91337 21.5855 7.33074 21.4814 7.14279L20.7622 5.90234L17.3176 6.56016L20.0335 10.7326L19.8632 10.9863L16.7687 15.6286H20.677L21.2448 14.6419C21.4909 14.2378 21.6707 13.9841 21.8883 13.1101H21.9262C21.9451 13.2229 22.0019 13.4202 22.352 14.1626L23.0239 15.6192H27.0836L24.0933 10.9769L23.8567 10.648ZM21.9451 13.2323C21.9546 13.2793 21.9735 13.3356 22.0113 13.4108C21.9735 13.3356 21.9546 13.2793 21.9451 13.2323Z" fill="#989898"/>
<path d="M42.575 7.27462C42.1492 6.78596 41.3164 5.99658 39.5562 5.99658C38.7424 5.99658 37.2945 6.12814 36.2536 7.30281C35.364 8.28953 35.0801 9.58636 35.0801 10.9866C35.0801 11.0711 35.0801 11.1557 35.0801 11.2403C35.118 12.5277 35.4776 13.8809 36.5659 14.8207C37.5216 15.6476 38.6951 15.8356 39.6036 15.8638C39.6603 15.8638 39.7266 15.8638 39.7834 15.8638C40.6067 15.8638 42.0735 15.7604 43.6349 14.52L42.3952 12.7063C41.676 13.2795 40.7675 13.6366 39.9726 13.6554C39.9442 13.6554 39.9253 13.6554 39.8969 13.6554C39.5752 13.6554 38.9601 13.5802 38.6099 12.9788C38.449 12.6875 38.3733 12.227 38.3733 11.9357H43.6633V11.1557C43.6633 11.0993 43.6633 11.043 43.6633 10.996C43.6443 8.91915 43.1523 7.95123 42.575 7.27462ZM38.3733 9.73672C38.3733 9.40781 38.4585 8.80639 38.7424 8.49627C38.9411 8.28013 39.2061 8.20496 39.4805 8.20496C39.7739 8.20496 40.1524 8.28013 40.3701 8.80639C40.4836 9.0977 40.5026 9.42661 40.5026 9.79311V9.88708H38.3733V9.73672Z" fill="#989898"/>
<path d="M56.713 5.95898C55.8234 5.95898 55.2462 6.44765 54.7635 7.12425C54.7446 6.56041 54.6216 6.19392 54.5648 6.01537L51.6312 6.50403C51.8867 7.60352 51.9246 8.46807 51.9246 9.91526V10.9866V15.6288H55.1137V10.9866V9.20106C55.2556 8.90974 55.5774 8.53385 56.2303 8.53385C56.3912 8.53385 56.7414 8.55265 57.1672 8.78758L57.9053 6.23151C57.4416 6.01537 57.0063 5.95898 56.713 5.95898Z" fill="#989898"/>
<path d="M64.6999 16.0234L64.7567 15.967H64.5769C64.6148 15.9858 64.6526 16.0046 64.6999 16.0234Z" fill="#989898"/>
<path d="M15.6048 12.7063C14.8856 13.2795 13.9771 13.6366 13.1822 13.6554C13.1539 13.6554 13.1349 13.6554 13.1065 13.6554C12.7753 13.6554 12.1602 13.5802 11.8195 12.9788C11.6587 12.6875 11.583 12.227 11.583 11.9357H16.8729V11.1557C16.8729 11.0993 16.8729 11.0429 16.8729 10.996C16.8445 8.91915 16.3619 7.95123 15.7846 7.27462C15.3588 6.78596 14.5165 5.99658 12.7659 5.99658C11.952 5.99658 10.5042 6.12814 9.4632 7.30281C8.57366 8.28953 8.2803 9.59576 8.2803 10.996C8.2803 11.0805 8.2803 11.1651 8.2803 11.2497C8.31816 12.5371 8.67776 13.8903 9.76603 14.8301C10.7218 15.657 11.8858 15.845 12.8037 15.8732C12.8605 15.8732 12.9267 15.8732 12.9835 15.8732C13.8068 15.8732 15.2736 15.7698 16.835 14.5294L15.6048 12.7063ZM11.583 9.73672C11.583 9.40781 11.6681 8.80638 11.952 8.49627C12.1508 8.28013 12.4157 8.20495 12.6807 8.20495C12.9835 8.20495 13.362 8.28013 13.5797 8.80638C13.6933 9.0977 13.7122 9.42661 13.7122 9.7931V9.88708H11.583V9.73672Z" fill="#989898"/>
<path d="M66.4506 14.2004C65.9869 13.8715 65.7881 13.3923 65.7881 12.4995C65.7881 12.4713 65.7881 12.4338 65.7881 12.4056L65.8071 10.9866L65.826 9.16348C65.826 8.89096 65.826 8.17676 65.6746 7.7069C65.5515 7.30281 65.2393 6.79536 64.5011 6.42886C63.7251 6.05297 62.9019 5.99658 62.2584 5.99658C61.2553 5.99658 60.4793 6.21272 59.9115 6.41946C59.3437 6.61681 58.6623 6.92692 57.9999 7.331L59.1544 9.29504C59.2301 9.23866 59.9872 8.67482 60.8294 8.43989C61.1985 8.34591 61.5581 8.30832 61.8609 8.30832C62.0218 8.30832 62.3341 8.30833 62.5044 8.52446C62.5328 8.58085 62.6274 8.72181 62.6274 9.18228V9.77431C62.4665 9.76491 62.2773 9.75551 62.0786 9.75551C61.2553 9.75551 60.1575 9.88708 59.2585 10.4415C58.9935 10.6107 58.7759 10.7892 58.5866 10.9866C58.104 11.5128 57.8958 12.1518 57.8958 12.913C57.8958 13.7964 58.2081 14.5575 58.7286 15.065C59.1544 15.4691 59.8736 15.8638 61.0565 15.8638C61.8893 15.8638 62.8072 15.6852 63.498 15.0838C63.7346 15.4879 64.0847 15.7322 64.5484 15.9578H64.7282L66.4222 14.3226L66.4979 14.2568C66.4979 14.238 66.4789 14.2192 66.4506 14.2004ZM62.6369 13.3829C62.5517 13.4675 62.4571 13.5238 62.3435 13.5802C62.2016 13.6554 62.0502 13.6836 61.8893 13.6836C61.6432 13.6836 61.3404 13.6084 61.1512 13.3171C61.0471 13.1386 61.0092 12.9412 61.0092 12.7533C61.0092 12.7251 61.0092 12.6969 61.0092 12.6593C61.0187 12.4713 61.0944 12.1612 61.454 11.9451C61.6716 11.8041 61.9839 11.7383 62.3624 11.729C62.4192 11.729 62.476 11.729 62.5328 11.729H62.6369V13.3829Z" fill="#989898"/>
</g>
<defs>
<clipPath id="clip0">
<rect width="66.5263" height="15.1579" fill="white" transform="translate(0 0.865234)"/>
</clipPath>
</defs>
</svg>
