<svg width="53" height="58" viewBox="0 0 53 58" fill="none" xmlns="http://www.w3.org/2000/svg">
<path d="M37 38.0269L35.1919 39.6899" stroke="#393939" stroke-width="2" stroke-linecap="round"/>
<path d="M38.4999 41.1956L37.1143 42.8589" stroke="#393939" stroke-width="2" stroke-linecap="round"/>
<path d="M49.4568 41.9468C48.3845 41.1349 47.1469 40.6988 45.8969 40.6277C41.1853 37.3083 38.099 34.8168 36.2971 32.8782L30.762 26.9232L34.1208 22.8781C34.7575 23.2647 35.4412 23.5195 36.125 23.6245C36.6411 23.717 36.9851 23.717 37.3292 23.717C38.0174 23.717 38.1893 23.717 38.8774 24.3648C38.5334 24.6424 38.3614 25.1051 38.3614 25.5677C38.3614 26.0303 38.5334 26.5856 38.8774 26.9557L41.8879 30.1945C42.318 30.7498 43.006 31.0274 43.6941 31.0274C44.3822 31.0274 45.0702 30.7498 45.5003 30.102L51.6072 23.5319C52.1232 23.0692 52.3813 22.329 52.3813 21.5887C52.3813 20.8483 52.1232 20.2006 51.6072 19.6454L48.5967 16.4066C48.2527 16.0365 47.8226 15.8514 47.3925 15.8514C46.9625 15.8514 46.5325 16.129 46.1884 16.4066C45.5002 15.7589 45.5002 15.5738 45.5002 14.8334C45.5002 14.4633 45.5002 14.0006 45.3282 13.4454C45.1561 12.1498 44.5541 10.8544 43.6079 9.83647L40.5115 6.50516C38.7053 4.56189 37.8452 3.63656 35.5229 2.52613C30.5343 0.0276458 25.4596 0.490364 18.0626 4.09928C17.6325 4.28439 17.4605 4.6545 17.5465 5.11722C17.6325 5.57994 17.9766 5.85755 18.4066 5.85755H19.5247C23.3092 5.85755 25.2874 5.85755 28.7279 9.55897C30.2344 11.1797 30.2779 13.6649 28.9281 15.4933C28.7462 15.5228 28.6077 15.6106 28.4699 15.7589L24.6492 20.3468L21.761 17.2395C18.5866 13.8243 16.3538 10.5931 14.6354 6.99509C14.5452 5.17448 13.8661 3.47108 12.6439 2.15613C11.1817 0.583081 9.11747 -0.157246 7.0532 0.027863C6.79517 0.120363 6.53713 0.305472 6.45116 0.490581C6.2791 0.76819 6.2791 1.1383 6.45116 1.41591L8.85944 6.04276C8.34337 7.2457 7.13918 7.98603 5.93509 7.89353L3.44073 3.45167C3.35475 3.17406 3.01064 2.98896 2.75261 2.98896C2.49457 2.89646 2.23654 3.08145 2.06448 3.35906C0.000211895 6.69037 0.774313 11.1321 3.87072 13.4455C4.93753 14.2653 6.1394 14.7212 7.35659 14.8147C7.3702 14.8209 7.383 14.8284 7.39711 14.8335C10.7516 16.6843 13.762 19.0902 16.9444 22.5141L20.0901 25.8214L1.80655 47.7766C1.11843 48.517 0.774414 49.5348 0.774414 50.5527C0.774414 51.5707 1.11843 52.496 1.80655 53.2363L3.01074 54.5319C3.69886 55.1796 4.55894 55.5498 5.41902 55.5498C6.2791 55.5498 7.22526 55.1797 7.91338 54.4394L26.176 32.4461L31.4804 38.1529C33.285 40.0943 35.6046 43.5137 38.6967 48.503C38.8076 50.2839 39.485 51.9467 40.6837 53.2363C41.9738 54.6244 43.6941 55.3647 45.5003 55.3647C45.7584 55.3647 46.0164 55.3647 46.1885 55.3647C46.4465 55.3647 46.7045 55.1796 46.8766 54.902C47.0486 54.6244 47.0486 54.2543 46.8766 53.9767L44.3822 49.4424C44.9843 48.2395 46.1025 47.4991 47.3926 47.5916L49.8009 52.0334C49.8869 52.311 50.231 52.4961 50.4891 52.4961C50.8331 52.4036 51.0911 52.311 51.2632 52.0334C53.3273 48.702 52.4671 44.2602 49.4568 41.9468ZM29.8463 8.07853C27.0939 5.20994 25.0296 4.2845 22.7073 4.00689C27.6099 2.34124 31.2224 2.43374 34.8349 4.192C36.8991 5.11733 37.5873 5.85765 39.3935 7.80092L42.4899 11.1322C43.178 11.8726 43.608 12.7979 43.6941 13.7232C43.7801 14.1859 43.7801 14.556 43.7801 14.8336C43.7801 15.8516 43.8661 16.5918 44.8982 17.7022C45.2422 18.0723 45.7583 18.2575 46.1884 18.2575C46.7044 18.2575 47.1345 18.0723 47.3925 17.7022L50.403 20.941C50.575 21.1262 50.661 21.3112 50.661 21.5888C50.661 21.8664 50.575 22.0515 50.403 22.2365L44.2961 28.8066C43.9521 29.1767 43.4361 29.1767 43.092 28.8066L40.0815 25.5678C40.4255 25.2902 40.5976 24.8275 40.5116 24.2723C40.5116 23.8095 40.3396 23.2543 39.9955 22.8842C38.9634 21.7738 38.2753 21.6813 37.3292 21.6813C37.0712 21.6813 36.7272 21.6813 36.2971 21.5888C35.3509 21.4963 34.5768 21.0336 33.8888 20.2932L30.1904 16.3142C32.0825 13.8158 31.9105 10.2994 29.8463 8.07853ZM2.83868 5.85766L4.64492 9.18896C4.81698 9.46657 5.07501 9.65168 5.33304 9.65168H5.76313C7.74143 9.74418 9.54766 8.63375 10.4077 6.78309L10.5798 6.32037C10.7519 6.04276 10.7519 5.76515 10.5798 5.48755L8.68748 1.97113C9.71962 2.15624 10.6658 2.71145 11.4399 3.54428C12.3267 4.57783 12.8944 5.88498 12.928 7.28908C12.9114 7.36032 12.902 7.43699 12.902 7.52342C12.902 7.95198 12.8539 8.37002 12.7649 8.77299C12.4405 10.1129 11.6624 11.2811 10.5797 12.0578C8.85944 13.2607 6.53714 13.2607 4.81698 11.9653C3.01074 10.577 2.23664 8.07853 2.83868 5.85766ZM18.1487 21.2187C15.5683 18.3501 12.988 16.1292 10.2356 14.3709C10.6657 14.1858 11.1817 13.9082 11.6117 13.6306C12.9019 12.7053 13.762 11.5022 14.278 10.0217C15.9122 12.9829 17.9765 15.759 20.5568 18.5351L23.5111 21.7135L21.1944 24.4955L18.1487 21.2187ZM6.70919 53.0512C6.02107 53.7915 4.90295 53.884 4.21483 53.1437L3.01064 51.9408C2.66663 51.5707 2.49457 51.1079 2.49457 50.6452C2.49457 50.09 2.66663 49.6273 3.09662 49.1647L3.58376 48.5783L4.81688 49.905C4.98893 50.0901 5.16089 50.1826 5.41892 50.1826C5.67696 50.1826 5.84901 50.0901 6.02097 49.905C6.36498 49.5349 6.36498 48.9797 6.02097 48.6095L4.72032 47.2101L5.85697 45.8419L7.22516 47.3139C7.39721 47.499 7.56917 47.5915 7.8272 47.5915C8.08524 47.5915 8.25729 47.499 8.42925 47.3139C8.77326 46.9438 8.77326 46.3886 8.42925 46.0184L6.99373 44.4739L29.1175 17.8436L32.73 21.7302L29.1805 26.0026C29.0791 26.0488 28.9894 26.1194 28.9001 26.2156L25.4597 30.3798C25.3614 30.4855 25.2923 30.6065 25.2501 30.7337L6.70919 53.0512ZM27.3529 31.0287L29.7068 28.194L35.2649 34.1738C36.8131 35.9319 39.4794 38.1528 43.3499 40.9289C42.8338 41.114 42.3177 41.3916 41.8017 41.7617C40.7346 42.4793 39.9788 43.4755 39.4522 44.5769C39.4444 44.5926 39.4372 44.6086 39.4296 44.6245C39.3983 44.6907 39.3679 44.7573 39.3383 44.8243C39.2958 44.9192 39.2555 45.0152 39.2169 45.1121C39.1905 45.1777 39.1642 45.2433 39.1393 45.3094C39.1358 45.3189 39.1323 45.3285 39.1288 45.338C39.1017 45.4104 39.0748 45.4829 39.0494 45.5558C38.5608 44.7849 37.4521 43.4657 37.0001 42.7803L36.7914 44.2446C37.1354 43.8745 37.1354 43.3192 36.7914 42.949C36.4473 42.5789 35.9313 42.5789 35.5872 42.949L36.5 42.2522C36.1426 41.7303 35.8331 41.1304 35.5 40.6677L34.3831 40.5972C34.7271 40.2271 34.7271 39.6718 34.3831 39.3016C34.0391 38.9315 33.523 38.9315 33.1789 39.3016L34.5223 38.9517C33.8901 38.132 33.307 37.4344 32.7706 36.8573L27.3529 31.0287ZM50.4029 49.5348L48.5966 46.2035C48.4246 45.9259 48.1665 45.7408 47.9085 45.7408H47.4784C45.5001 45.5557 43.6939 46.7587 42.8338 48.6094L42.6618 49.0721C42.4897 49.3497 42.4897 49.6273 42.6618 49.9049L44.554 53.4213C43.5218 53.2362 42.5757 52.681 41.8016 51.8482C40.9316 50.8341 40.3693 49.5568 40.3164 48.1832C40.3311 48.1155 40.3394 48.0429 40.3394 47.9616C40.3394 46.7894 40.6853 45.6919 41.2881 44.7622C41.6586 44.2076 42.1218 43.7221 42.6617 43.3349C43.5217 42.6872 44.4679 42.4096 45.5 42.4096C46.5322 42.4096 47.5643 42.7797 48.4244 43.4275C50.2309 44.8154 51.005 47.3139 50.4029 49.5348Z" fill="#A2AE8B"/>
<path d="M7.63223 53.4458L33.3727 22.1777C33.5904 21.9133 33.5768 21.5277 33.3409 21.2785L29.73 17.4645C29.3259 17.0377 28.6414 17.0558 28.262 17.5033L2.35868 48.0574C1.18034 49.4473 1.23829 51.5032 2.49317 52.8288L2.52221 52.8595C2.62625 52.9694 2.72112 53.0876 2.80588 53.213C3.93561 54.8836 6.3526 55.0003 7.63223 53.4458Z" stroke="#393939" stroke-width="2"/>
<path d="M7.93762 46.9646L5.54712 44.4395" stroke="#393939" stroke-width="2" stroke-linecap="round"/>
<path d="M6.02515 49.9946L3.63477 47.4695" stroke="#393939" stroke-width="2" stroke-linecap="round"/>
</svg>
