<svg width="29" height="29" viewBox="0 0 29 29" fill="none" xmlns="http://www.w3.org/2000/svg">
<path fill-rule="evenodd" clip-rule="evenodd" d="M14.3158 0.286133C6.4094 0.286133 0 6.69553 0 14.6019C0 22.5083 6.4094 28.9177 14.3158 28.9177C22.2222 28.9177 28.6316 22.5083 28.6316 14.6019C28.6316 6.69553 22.2222 0.286133 14.3158 0.286133ZM15.4729 19.422C15.3328 19.5832 15.0593 19.6158 15.0593 19.6158H14.1533C14.1533 19.6158 12.1546 19.7444 10.3938 17.7813C8.47363 15.6395 6.77811 11.39 6.77811 11.39C6.77811 11.39 6.68025 11.1113 6.78627 10.977C6.90563 10.8254 7.23109 10.8158 7.23109 10.8158L9.39664 10.8007C9.39664 10.8007 9.60052 10.8365 9.74657 10.9516C9.86742 11.0469 9.93488 11.224 9.93488 11.224C9.93488 11.224 10.2848 12.1722 10.7482 13.0299C11.6534 14.7048 12.0745 15.0709 12.3814 14.8914C12.8292 14.6301 12.695 12.524 12.695 12.524C12.695 12.524 12.7032 11.7601 12.4696 11.4194C12.2887 11.1557 11.9477 11.0787 11.7972 11.0573C11.6749 11.0398 11.8751 10.7364 12.1345 10.6006C12.5245 10.3965 13.2125 10.3846 14.0258 10.3933C14.6597 10.4005 14.842 10.4426 15.0896 10.5069C15.6643 10.6555 15.6464 11.1315 15.6077 12.159C15.5961 12.4663 15.5827 12.8229 15.5827 13.2348C15.5827 13.3274 15.5801 13.426 15.5776 13.5275C15.5641 14.0539 15.5487 14.6567 15.8725 14.8811C16.0386 14.9954 16.4441 14.8978 17.4591 13.0522C17.9402 12.177 18.3005 11.1486 18.3005 11.1486C18.3005 11.1486 18.3799 10.9651 18.5022 10.8865C18.6275 10.8063 18.7965 10.8309 18.7965 10.8309L21.0755 10.8158C21.0755 10.8158 21.7605 10.7277 21.871 11.0596C21.9874 11.4067 21.6152 12.2183 20.684 13.5477C19.7966 14.815 19.3669 15.2779 19.411 15.6901C19.4428 15.9879 19.7221 16.2593 20.2548 16.7886C21.3741 17.9018 21.6741 18.4875 21.7462 18.6282C21.7522 18.6399 21.7566 18.6485 21.7598 18.6541C22.2617 19.5459 21.203 19.6158 21.203 19.6158L19.1783 19.646C19.1783 19.646 18.7439 19.7381 18.1715 19.3172C17.8717 19.0969 17.5788 18.7371 17.2997 18.3944C16.8736 17.871 16.4799 17.3876 16.1439 17.5018C15.5797 17.694 15.5967 18.9956 15.5967 18.9956C15.5967 18.9956 15.6012 19.2743 15.4729 19.422Z" fill="#A2AE8B"/>
</svg>
