<svg width="37" height="37" viewBox="0 0 37 37" fill="none" xmlns="http://www.w3.org/2000/svg">
<g clip-path="url(#clip0)">
<path d="M5.57239 31.8689H16.3727V2.86151H5.57239V31.8689ZM6.32354 15.1446L15.6216 5.84671V14.2619L15.6074 14.2477L6.32354 23.5316V15.1446ZM6.32354 31.1177V24.5938L15.6216 15.2958V31.1178H6.32354V31.1177ZM15.6216 4.8128L15.6074 4.79863L6.32354 14.0824V11.9853L14.696 3.61267H15.6216V4.8128ZM13.6338 3.61267L6.32354 10.923V3.61267H13.6338Z" fill="#A2AE8B"/>
<path d="M33.3982 33.9703V0.0090332H3.51446V33.9703H2.05518V36.009H34.8575V33.9703H33.3982ZM32.6471 33.9703H28.6333L28.9109 31.8689H31.3397V2.86139H20.5403V31.8689H24.3469L24.6245 33.9703H18.8319V0.760189H32.6471V33.9703ZM21.3048 12.0947L29.7869 3.61254H30.5886V4.90914L21.2914 14.2063V12.0813L21.3048 12.0947ZM21.2914 11.046V3.61254H28.7248L21.2914 11.046ZM30.5886 14.3583L21.2914 23.6555V15.2409L21.3053 15.2547L30.5886 5.97139V14.3583ZM21.2914 24.69L21.3053 24.7038L30.5886 15.4204V31.1177H29.0102L29.3646 28.435H27.0583V27.9586L27.8309 27.5293L27.466 26.8727L27.0583 27.0993V26.5623C27.7201 26.3942 28.2118 25.7951 28.2118 25.0818V22.3191L26.6827 23.5994L25.1535 22.3191V25.0818C25.1535 25.7951 25.6452 26.3942 26.3071 26.5623V28.4351H23.8934L24.2479 31.1178H21.2915L21.2914 24.69ZM26.6826 25.8596C26.2536 25.8596 25.9046 25.5107 25.9046 25.0816V23.9275L26.6826 24.5788L27.4606 23.9275V25.0816C27.4606 25.5107 27.1116 25.8596 26.6826 25.8596ZM28.5076 29.1862L27.8838 33.9077H25.374L24.7502 29.1862H28.5076ZM4.26561 0.760189H18.0808V33.9703H4.26561V0.760189ZM34.1064 35.2579H2.80633V34.7214H34.1064V35.2579Z" fill="$main"/>
<path d="M17.5871 18.974H16.8359V22.1218H17.5871V18.974Z" fill="$main"/>
<path d="M20.0767 18.974H19.3256V22.1218H20.0767V18.974Z" fill="$main"/>
<path d="M20.5397 31.9938H31.34V2.98639H20.5397V31.9938ZM21.2908 15.2695L30.5889 5.97159V14.3868L30.5747 14.3726L21.2908 23.6565V15.2695ZM21.2908 31.2426V24.7187L30.5889 15.4207V31.2427H21.2908V31.2426ZM30.5889 4.93768L30.5747 4.92351L21.2908 14.2073V12.1101L29.6633 3.73755H30.5889V4.93768ZM28.6011 3.73755L21.2908 11.0479V3.73755H28.6011Z" fill="#A2AE8B"/>
<rect x="20.5397" y="2.8645" width="10.787" height="0.349526" fill="#A2AE8B"/>
<rect x="20.5397" y="31.1145" width="10.787" height="0.349526" fill="#A2AE8B"/>
</g>
<defs>
<clipPath id="clip0">
<rect width="36" height="36" fill="white" transform="translate(0.456299 0.0090332)"/>
</clipPath>
</defs>
</svg>
